<?xml version="1.0" standalone="no"?>
<!DOCTYPE svg PUBLIC "-//W3C//DTD SVG 20010904//EN"
 "http://www.w3.org/TR/2001/REC-SVG-20010904/DTD/svg10.dtd">
<svg version="1.0" xmlns="http://www.w3.org/2000/svg"
 width="1280.000000pt" height="1280.000000pt" viewBox="0 0 1280.000000 1280.000000"
 preserveAspectRatio="xMidYMid meet">
<metadata>
Created by potrace 1.14, written by Peter Selinger 2001-2017
</metadata>
<g transform="translate(0.000000,1280.000000) scale(0.100000,-0.100000)"
fill="#000000" stroke="none">
<path d="M6319 12793 c-3 -7 -241 -205 -457 -381 -23 -19 -51 -43 -64 -54 -13
-11 -34 -29 -47 -39 l-23 -19 66 -71 c61 -66 157 -198 168 -230 5 -14 40 9
188 123 41 32 80 61 85 65 6 5 30 24 55 44 l45 36 0 261 c-1 232 -5 294 -16
265z"/>
<path d="M6469 12788 c-4 -50 -3 -528 2 -528 3 0 14 -8 25 -18 10 -10 73 -58
139 -108 66 -49 129 -97 139 -106 11 -10 22 -18 25 -18 3 0 20 24 38 53 39 64
71 104 151 188 l63 66 -108 90 c-93 77 -161 132 -402 331 -25 21 -50 43 -58
50 -11 11 -13 11 -14 0z"/>
<path d="M7919 12487 c0 -12 1 -62 2 -112 1 -49 2 -114 2 -143 l1 -54 41 7
c160 27 242 26 371 -6 94 -23 240 -98 309 -159 25 -22 41 -27 93 -29 35 -1 98
-11 140 -22 197 -50 361 -168 469 -336 26 -40 49 -73 52 -73 3 0 57 50 120
110 l114 110 -24 27 c-134 151 -252 256 -403 357 -94 63 -305 176 -356 191
-14 4 -38 13 -55 21 -85 37 -335 103 -455 119 -25 3 -129 8 -232 10 -188 4
-188 4 -189 -18z"/>
<path d="M4528 12495 c-2 -2 -30 -6 -63 -9 -33 -3 -96 -13 -140 -22 -44 -9
-84 -17 -90 -19 -197 -40 -506 -179 -700 -313 -121 -84 -337 -281 -365 -333
-7 -12 16 -39 102 -120 61 -57 114 -104 118 -104 4 0 29 30 57 66 89 117 178
189 307 249 89 41 149 58 238 67 49 5 64 11 96 40 187 176 497 251 736 179 25
-8 47 -13 47 -13 2 2 7 133 9 240 1 43 -1 81 -4 85 -7 6 -342 13 -348 7z"/>
<path d="M7650 12452 c-209 -55 -405 -164 -541 -301 -252 -253 -339 -585 -248
-946 23 -88 85 -246 102 -257 5 -3 35 -9 66 -13 84 -10 124 -16 141 -20 8 -3
33 -7 55 -11 22 -3 42 -7 45 -9 3 -2 25 -6 50 -10 25 -4 48 -8 51 -11 4 -2 22
-6 42 -9 19 -3 74 -16 121 -29 47 -13 86 -22 86 -21 0 2 -26 30 -57 63 -92 95
-175 252 -197 372 -3 19 -8 46 -11 60 -6 29 -7 163 -2 200 11 77 38 169 69
238 56 126 184 269 303 340 l70 41 -2 43 c-1 24 -3 103 -4 176 -2 114 -4 132
-18 132 -9 -1 -63 -13 -121 -28z"/>
<path d="M5016 12461 c-5 -7 -11 -303 -7 -347 1 -6 19 -24 42 -38 140 -93 257
-242 310 -395 103 -294 31 -609 -187 -826 -31 -30 -54 -55 -51 -55 3 0 65 16
140 35 74 19 145 36 158 39 13 2 83 15 154 29 72 14 152 28 179 32 27 3 55 13
61 22 20 27 66 154 92 253 37 140 40 331 8 467 -35 147 -71 227 -150 339 -93
130 -219 239 -365 317 -71 37 -239 103 -286 111 -16 3 -44 10 -61 15 -18 5
-35 6 -37 2z"/>
<path d="M6283 12059 c-65 -50 -125 -95 -133 -102 -8 -7 -39 -29 -67 -50 -29
-21 -53 -44 -53 -50 0 -7 7 -31 15 -54 8 -23 17 -57 20 -75 3 -18 11 -51 17
-73 11 -43 15 -275 5 -340 -20 -125 -29 -163 -67 -271 l-28 -81 87 6 c109 7
580 7 644 0 28 -4 47 -2 47 4 0 5 -12 42 -26 81 -24 67 -43 140 -61 231 -4 22
-8 114 -7 205 1 148 4 175 28 265 16 55 29 108 30 119 1 13 -44 52 -149 132
-82 63 -158 121 -167 128 -15 13 -29 5 -135 -75z"/>
<path d="M4617 12074 c-1 -1 -31 -4 -67 -7 -83 -7 -179 -37 -255 -81 l-59 -34
59 -17 c262 -76 460 -272 545 -540 32 -100 36 -290 9 -395 -10 -41 -21 -83
-24 -93 -2 -9 -17 -44 -34 -76 l-30 -59 37 10 c119 32 266 131 341 231 93 123
134 246 135 402 0 123 -14 185 -66 289 -42 83 -63 112 -134 181 -107 104 -243
169 -385 184 -38 4 -70 6 -72 5z"/>
<path d="M8118 12075 c-2 -3 -20 -5 -39 -6 -214 -11 -427 -157 -532 -365 -88
-174 -85 -411 5 -589 56 -110 167 -221 277 -279 64 -33 178 -72 187 -64 2 3
-14 40 -35 84 -168 340 -71 752 230 979 66 49 217 125 249 125 32 0 23 18 -18
39 -67 34 -164 62 -231 67 -36 3 -71 7 -78 9 -6 2 -13 2 -15 0z"/>
<path d="M8547 11846 c-26 -7 -51 -14 -55 -15 -52 -11 -120 -44 -187 -92 -130
-93 -227 -240 -259 -394 -15 -69 -16 -230 -2 -288 20 -84 89 -222 138 -274 18
-19 28 -22 62 -16 164 25 338 135 434 274 30 45 80 144 87 178 3 9 9 36 16 61
16 67 14 216 -5 290 -22 85 -66 179 -113 240 -41 54 -45 55 -116 36z m-91
-512 c34 -23 61 -81 57 -122 -11 -123 -157 -170 -241 -79 -25 26 -39 89 -28
130 6 27 51 75 81 88 28 12 100 3 131 -17z"/>
<path d="M8800 11841 c0 -6 4 -13 10 -16 12 -7 51 -92 75 -160 38 -113 50
-255 31 -375 -44 -277 -254 -529 -513 -616 -26 -9 -51 -19 -56 -23 -4 -4 17
-19 46 -34 298 -145 660 -49 841 225 95 142 133 346 95 503 -5 22 -11 47 -13
55 -2 8 -15 41 -29 72 -76 170 -218 298 -396 357 -71 23 -91 26 -91 12z"/>
<path d="M4076 11784 c-76 -104 -117 -253 -111 -398 13 -290 203 -527 485
-605 41 -12 91 -21 110 -21 32 0 39 6 70 53 77 118 111 243 105 392 -12 322
-255 585 -577 622 -46 5 -46 5 -82 -43z m383 -463 c45 -31 65 -68 65 -116 -2
-82 -64 -139 -145 -132 -55 5 -92 29 -115 76 -58 120 87 248 195 172z"/>
<path d="M3861 11794 c-266 -99 -434 -340 -434 -619 0 -147 38 -265 127 -389
118 -166 327 -270 536 -268 103 1 203 27 302 79 64 33 78 53 40 53 -9 0 -37 7
-61 16 -239 83 -422 267 -500 501 -31 93 -36 126 -35 258 1 136 16 208 69 323
19 39 31 72 27 71 -4 0 -36 -12 -71 -25z"/>
<path d="M3033 11613 c-133 -216 -193 -408 -198 -633 -6 -306 133 -589 386
-785 67 -51 193 -121 282 -156 l78 -30 92 69 c99 75 317 219 410 271 31 18 57
34 57 35 0 2 -28 3 -62 3 -35 0 -85 3 -113 7 -61 9 -213 60 -263 89 -208 120
-342 304 -398 548 -15 65 -10 232 9 318 l20 89 -108 104 c-60 57 -116 111
-124 121 -9 9 -18 17 -21 17 -3 0 -24 -30 -47 -67z"/>
<path d="M9577 11545 l-127 -124 13 -83 c32 -203 -7 -392 -116 -563 -139 -218
-391 -356 -650 -357 l-97 0 91 -54 c50 -30 93 -54 95 -54 5 0 318 -212 369
-250 l41 -31 77 32 c350 141 580 406 648 744 13 68 17 245 6 320 -18 132 -80
312 -151 438 -68 123 -52 125 -199 -18z"/>
<path d="M2659 11046 c-3 -3 -38 -8 -79 -11 -84 -6 -156 -13 -215 -20 -22 -2
-71 -7 -110 -11 -38 -4 -79 -7 -90 -9 -84 -8 -222 -18 -228 -17 -23 6 12 -32
183 -203 160 -161 188 -185 210 -181 14 3 45 8 70 11 25 3 56 8 70 10 14 2 45
7 70 10 25 3 56 8 70 10 14 2 43 7 64 10 22 3 41 7 43 8 1 2 -4 27 -12 57 -17
63 -28 165 -29 262 -1 62 -6 84 -17 74z"/>
<path d="M10093 10991 c1 -82 -11 -198 -28 -261 -8 -30 -15 -60 -15 -66 0 -9
72 -23 203 -38 71 -9 161 -22 216 -31 26 -4 45 12 212 180 101 102 185 189
187 193 1 5 -8 8 -20 8 -13 1 -50 4 -83 7 -33 4 -89 9 -125 12 -36 3 -81 8
-100 10 -37 4 -136 14 -210 21 -25 2 -70 6 -100 9 -30 3 -74 7 -96 9 l-42 4 1
-57z"/>
<path d="M10780 10688 c-137 -139 -185 -193 -184 -210 2 -32 14 -130 19 -148
2 -8 7 -40 10 -70 17 -156 24 -183 43 -175 40 16 185 37 277 39 55 1 99 6 99
12 -2 12 -13 125 -19 194 -2 30 -7 75 -10 100 -5 48 -15 150 -20 209 -14 155
-23 235 -28 236 -1 0 -85 -84 -187 -187z"/>
<path d="M1823 10843 c0 -16 -4 -62 -8 -103 -10 -97 -11 -111 -19 -200 -4 -41
-9 -91 -11 -110 -5 -36 -9 -77 -21 -210 -12 -138 -19 -124 60 -126 97 -3 180
-12 254 -29 35 -8 65 -15 66 -15 2 0 7 26 11 58 5 31 9 64 10 72 1 8 5 44 9
80 4 35 9 67 11 70 4 6 14 88 18 147 2 16 -46 70 -182 208 -101 102 -187 185
-191 185 -3 0 -7 -12 -7 -27z"/>
<path d="M6149 10845 c-3 -3 -157 -17 -211 -19 -23 0 -23 -1 -14 -92 26 -277
161 -535 399 -766 53 -52 73 -65 86 -59 31 17 172 167 231 246 142 190 232
427 234 620 1 46 -1 50 -24 51 -14 2 -50 5 -80 9 -60 7 -615 16 -621 10z m326
-199 c80 -53 80 -178 -1 -231 -89 -58 -207 7 -208 116 -1 108 119 174 209 115z"/>
<path d="M5731 10799 c-24 -5 -45 -10 -46 -11 -7 -8 -64 -178 -59 -178 2 0 0
-8 -5 -19 -22 -40 -33 -240 -19 -326 26 -155 129 -313 278 -427 68 -52 79 -57
115 -53 117 11 190 18 233 20 26 2 52 3 58 4 6 0 -27 38 -74 84 -240 232 -394
537 -418 829 -4 40 -9 76 -13 79 -3 3 -26 2 -50 -2z"/>
<path d="M7015 10796 c-3 -6 -7 -33 -9 -61 -14 -150 -50 -279 -118 -424 -35
-76 -113 -206 -141 -237 -7 -7 -23 -27 -37 -46 -14 -18 -67 -75 -117 -127 -51
-52 -93 -95 -93 -95 0 -1 24 -1 53 -2 28 0 88 -4 132 -8 44 -4 97 -9 117 -11
29 -2 48 4 85 28 67 45 192 173 231 239 91 153 112 341 61 543 -18 72 -61 195
-67 195 -4 1 -26 5 -50 9 -30 6 -45 5 -47 -3z"/>
<path d="M5365 10725 c-209 -51 -198 -46 -212 -89 -7 -20 -15 -47 -17 -59 -3
-12 -11 -53 -20 -92 -10 -47 -14 -109 -12 -190 4 -145 27 -222 101 -344 30
-49 99 -120 168 -172 126 -95 120 -94 236 -64 98 25 135 33 157 34 6 1 -28 40
-76 89 -117 118 -179 228 -214 382 -19 80 -14 293 7 363 8 26 13 47 12 47 -2
0 5 25 16 57 22 66 23 73 7 72 -7 0 -76 -16 -153 -34z"/>
<path d="M7274 10744 c13 -33 49 -181 55 -224 8 -58 8 -234 0 -281 -24 -142
-97 -276 -214 -395 l-90 -91 120 -28 c66 -16 127 -30 135 -32 9 -2 50 18 92
46 230 150 341 362 325 621 -7 107 -10 124 -38 232 -19 71 -24 78 -52 87 -47
15 -178 49 -212 55 -17 3 -46 10 -65 16 -49 14 -63 13 -56 -6z"/>
<path d="M4940 10602 c-267 -101 -539 -218 -539 -232 -1 -3 34 -27 76 -55 92
-59 225 -188 276 -266 48 -73 84 -157 103 -238 17 -72 22 -224 11 -313 l-8
-56 128 58 c103 47 241 102 342 136 9 3 -2 16 -30 36 -131 95 -248 249 -291
383 -41 128 -47 347 -14 494 9 41 15 75 14 76 -2 1 -32 -9 -68 -23z"/>
<path d="M7795 10593 c53 -211 46 -421 -22 -583 -50 -121 -163 -261 -272 -339
-28 -20 -39 -32 -30 -36 161 -57 311 -118 414 -168 28 -14 51 -22 53 -17 1 4
-1 32 -6 62 -12 79 -6 222 12 301 33 142 116 279 234 387 77 71 81 74 159 125
46 31 61 45 51 51 -83 52 -549 244 -590 244 -6 0 -7 -11 -3 -27z"/>
<path d="M9962 10457 c-120 -217 -296 -381 -541 -502 l-83 -41 63 -55 c131
-112 326 -305 429 -424 28 -33 55 -61 58 -63 4 -1 25 33 46 75 120 246 289
429 501 543 89 48 86 45 80 109 -4 31 -8 63 -10 71 -2 8 -7 38 -10 65 -4 28
-8 61 -11 75 -2 14 -6 50 -10 80 -3 30 -11 60 -17 66 -7 7 -36 15 -66 18 -50
6 -165 22 -221 31 -14 2 -50 7 -80 10 -30 4 -63 9 -72 10 -12 3 -28 -17 -56
-68z"/>
<path d="M2660 10509 c-30 -4 -80 -11 -110 -15 -30 -3 -57 -8 -60 -9 -3 -2
-34 -6 -70 -10 -36 -3 -70 -12 -76 -18 -7 -7 -15 -37 -18 -67 -4 -30 -8 -68
-11 -85 -3 -16 -7 -46 -9 -65 -3 -19 -10 -69 -16 -110 -6 -41 -13 -87 -15
-103 -3 -25 2 -30 53 -56 211 -107 395 -303 521 -556 l37 -76 51 58 c81 92
109 123 191 207 87 89 267 257 288 269 25 14 15 24 -63 62 -120 56 -260 154
-351 245 -83 83 -180 217 -216 298 -21 46 -23 47 -126 31z"/>
<path d="M4195 10262 c-91 -52 -119 -68 -194 -116 l-74 -48 74 -40 c101 -55
184 -115 253 -185 155 -156 226 -341 220 -575 l-3 -86 77 49 c42 27 94 58 115
69 38 21 52 44 62 101 3 16 8 44 11 62 18 94 8 243 -24 342 -50 160 -219 337
-419 439 -41 20 -39 21 -98 -12z"/>
<path d="M8450 10240 c-126 -76 -219 -157 -280 -245 -31 -46 -80 -140 -85
-164 -1 -9 -8 -36 -15 -60 -24 -91 -16 -271 17 -385 8 -28 51 -59 225 -166 15
-9 16 0 16 93 -1 101 2 133 22 223 46 202 208 392 449 522 l73 40 -68 44
c-113 73 -244 148 -258 148 -7 0 -50 -22 -96 -50z"/>
<path d="M3761 9981 l-35 -29 40 -48 c59 -71 116 -159 156 -239 35 -68 86
-200 94 -240 6 -33 12 -58 23 -109 17 -74 25 -169 25 -303 0 -68 2 -123 4
-123 3 0 26 19 51 43 26 23 69 60 95 82 115 93 108 83 122 185 49 344 -110
611 -459 774 -42 20 -78 36 -80 36 -1 0 -17 -13 -36 -29z"/>
<path d="M8923 9976 c-138 -66 -275 -171 -345 -266 -101 -135 -141 -321 -112
-520 11 -73 16 -88 42 -110 16 -14 71 -62 124 -106 l94 -82 1 124 c1 68 4 145
8 171 4 27 9 63 11 81 4 46 41 186 64 247 49 133 136 284 221 385 41 48 49 70
26 70 -8 0 -22 9 -32 20 -10 11 -21 20 -24 20 -4 0 -39 -15 -78 -34z"/>
<path d="M10888 9965 c-2 -1 -28 -5 -58 -8 -239 -26 -481 -173 -645 -392 -45
-59 -157 -276 -168 -324 -5 -19 9 -44 62 -115 83 -111 173 -246 232 -346 24
-41 47 -76 51 -78 5 -2 8 -10 8 -17 0 -8 4 -16 8 -19 5 -3 9 25 9 62 1 62 4
90 18 164 10 51 56 169 87 221 139 237 386 384 660 392 94 2 224 -15 260 -35
14 -8 26 -2 55 28 166 170 215 223 212 226 -17 15 -128 81 -194 113 -72 37
-203 85 -262 98 -13 3 -31 7 -42 9 -56 13 -106 18 -193 21 -53 2 -98 2 -100 0z"/>
<path d="M1739 9936 c-2 -2 -26 -6 -54 -9 -158 -17 -383 -100 -513 -189 l-43
-30 94 -96 c52 -54 108 -112 124 -131 l30 -34 69 13 c63 12 238 17 274 7 8 -2
33 -7 55 -12 64 -12 185 -65 255 -111 216 -142 351 -389 352 -646 l0 -98 85
143 c79 132 164 259 264 399 l41 56 -38 89 c-154 359 -430 589 -769 639 -44 6
-222 14 -226 10z"/>
<path d="M3502 9775 c-105 -89 -321 -299 -407 -395 -72 -81 -155 -181 -155
-188 1 -10 130 -109 192 -146 92 -55 250 -119 328 -133 14 -2 41 -8 60 -13 81
-20 390 -33 406 -17 9 8 8 252 0 312 -27 193 -76 337 -169 495 -28 47 -130
180 -138 180 -3 0 -56 -43 -117 -95z m54 -330 c106 -69 71 -228 -55 -250 -61
-11 -119 24 -145 87 -50 119 91 234 200 163z"/>
<path d="M9129 9812 c-69 -86 -102 -139 -147 -232 -62 -129 -86 -216 -117
-410 -6 -39 -7 -291 -2 -297 3 -2 48 -5 102 -6 310 -8 578 72 799 240 49 37
91 73 93 79 7 20 -139 186 -336 383 -110 109 -327 302 -340 300 -3 0 -27 -26
-52 -57z m268 -388 c63 -48 68 -147 11 -203 -85 -83 -229 -25 -230 93 -2 117
125 181 219 110z"/>
<path d="M11679 9528 c-57 -61 -104 -114 -104 -118 0 -4 27 -28 60 -53 79 -58
215 -205 215 -232 0 -3 11 -22 23 -43 34 -54 65 -148 82 -254 8 -51 19 -94 24
-96 17 -6 108 -134 139 -197 87 -174 109 -388 57 -560 -7 -25 -12 -46 -12 -46
3 -2 120 -7 222 -9 l100 -3 7 44 c7 47 3 337 -6 379 -2 14 -7 43 -10 65 -19
129 -75 340 -115 430 -5 11 -24 54 -43 95 -77 174 -183 344 -302 485 -63 74
-190 200 -217 215 -13 7 -38 -14 -120 -102z"/>
<path d="M922 9544 c-340 -319 -566 -774 -619 -1244 -10 -83 -10 -366 -1 -375
6 -6 86 -7 266 -2 l54 2 -6 35 c-3 19 -9 49 -12 65 -12 60 -7 202 10 280 22
100 89 243 147 315 41 50 45 60 47 118 12 252 183 524 400 636 18 9 32 21 30
26 -4 13 -211 230 -219 230 -3 0 -47 -39 -97 -86z"/>
<path d="M6292 9483 c-38 -32 -88 -74 -112 -93 -24 -19 -59 -48 -78 -64 l-33
-29 34 -36 c19 -20 44 -52 57 -71 13 -19 25 -37 26 -38 3 -5 122 80 156 111
26 24 27 27 26 151 0 69 -2 126 -4 126 -2 0 -34 -26 -72 -57z"/>
<path d="M6432 9409 l0 -130 82 -61 81 -60 20 28 c11 16 39 49 63 75 l42 47
-88 73 c-49 41 -107 88 -128 104 -20 17 -43 36 -50 43 -7 6 -15 12 -17 12 -3
0 -5 -59 -5 -131z"/>
<path d="M7188 9402 c-37 -3 -40 -7 -40 -47 0 -8 0 -37 1 -63 l1 -49 78 5 c96
5 168 -13 240 -62 29 -19 69 -36 94 -39 122 -17 223 -79 289 -178 l24 -37 58
57 57 56 -58 57 c-78 78 -79 79 -148 126 -132 90 -315 156 -464 168 -41 3 -79
6 -85 7 -5 1 -27 1 -47 -1z"/>
<path d="M5488 9395 c-2 -2 -25 -5 -53 -8 -208 -25 -437 -138 -585 -291 l-44
-46 57 -57 57 -58 17 25 c56 83 166 154 258 166 35 5 62 17 90 39 48 39 85 58
147 75 47 12 168 10 201 -5 15 -6 17 -1 18 46 0 30 2 64 3 77 2 13 -2 26 -8
30 -10 6 -152 12 -158 7z"/>
<path d="M7015 9375 c-196 -54 -338 -184 -389 -355 -23 -77 -16 -218 15 -304
13 -38 31 -72 39 -77 8 -4 65 -17 125 -29 122 -23 138 -26 166 -35 26 -9 24 1
-7 32 -35 35 -84 140 -93 200 -21 147 45 294 172 382 47 32 44 17 38 174 -1
31 2 30 -66 12z"/>
<path d="M5719 9368 c0 -7 -1 -45 -3 -85 l-2 -71 62 -56 c45 -40 72 -76 96
-123 30 -62 33 -75 33 -163 0 -52 -3 -104 -7 -115 -20 -64 -60 -130 -95 -158
-39 -31 -26 -36 40 -17 35 9 97 24 138 31 41 7 77 14 82 15 4 1 16 2 27 3 24
1 56 70 76 162 6 30 6 167 0 194 -20 86 -55 151 -116 218 -58 63 -122 107
-206 141 -82 33 -124 41 -125 24z"/>
<path d="M11028 9359 c-196 -48 -357 -177 -443 -354 -93 -192 -89 -404 12
-597 20 -38 38 -68 42 -68 4 0 8 11 9 24 3 42 43 138 89 216 96 164 252 290
433 350 88 30 127 35 260 34 130 -1 204 -17 316 -69 l72 -33 -10 36 c-58 209
-229 381 -446 449 -99 30 -239 35 -334 12z"/>
<path d="M1470 9330 c-236 -47 -420 -207 -496 -430 -13 -40 -24 -78 -24 -86 0
-9 25 -1 79 26 285 142 621 103 863 -100 96 -80 188 -208 228 -319 12 -31 23
-63 26 -71 7 -19 57 74 78 145 92 312 -50 637 -341 784 -116 58 -277 78 -413
51z"/>
<path d="M6306 9153 c-72 -55 -86 -70 -81 -87 34 -121 30 -275 -10 -378 -8
-21 -11 -38 -7 -39 32 -4 372 -3 372 1 0 3 -10 34 -21 70 -27 82 -32 232 -12
304 8 28 15 56 16 62 2 11 -149 134 -163 134 -3 0 -46 -30 -94 -67z"/>
<path d="M5456 9179 c-44 -11 -106 -38 -106 -48 0 -3 22 -14 49 -24 96 -34
192 -131 227 -229 24 -68 28 -157 10 -228 -9 -35 -22 -70 -28 -77 -21 -25 1
-25 55 0 80 39 152 123 172 202 45 183 -50 351 -226 398 -63 17 -99 18 -153 6z"/>
<path d="M7184 9180 c-93 -21 -186 -98 -227 -188 -33 -74 -30 -190 6 -264 34
-69 106 -137 177 -166 59 -25 57 -32 20 73 -47 131 -17 282 76 385 40 44 116
95 157 105 45 12 37 20 -48 50 -29 10 -125 13 -161 5z"/>
<path d="M2822 9044 l-33 -44 37 -78 c172 -358 438 -512 789 -455 44 7 81 13
81 13 3 0 198 231 212 250 12 16 6 17 -105 17 -258 -1 -420 32 -633 130 -77
35 -215 122 -261 164 -54 50 -52 50 -87 3z"/>
<path d="M7419 9066 c-86 -30 -141 -80 -185 -166 -25 -47 -29 -67 -29 -135 0
-44 4 -89 9 -100 5 -11 10 -23 10 -26 1 -3 14 -26 30 -52 27 -42 32 -45 60
-40 41 7 125 49 155 76 116 107 140 289 55 417 -29 44 -45 48 -105 26z m-10
-243 c12 -10 23 -33 26 -50 3 -26 -2 -37 -22 -53 -14 -11 -34 -20 -43 -20 -31
0 -61 33 -62 67 -1 37 14 60 45 66 12 2 25 5 28 6 4 0 16 -7 28 -16z"/>
<path d="M7607 9023 c85 -193 -2 -422 -193 -510 -30 -13 -52 -28 -49 -33 12
-20 121 -42 185 -38 220 16 357 247 267 450 -32 72 -104 142 -174 168 -29 11
-56 20 -58 20 -2 0 8 -26 22 -57z"/>
<path d="M9910 9055 c-35 -37 -184 -137 -265 -178 -38 -19 -108 -48 -155 -65
-75 -26 -115 -37 -220 -57 -58 -12 -162 -19 -267 -19 -62 -1 -113 -3 -113 -6
0 -3 15 -21 33 -40 18 -19 66 -74 106 -122 40 -49 77 -89 82 -89 5 -1 12 -2
17 -3 84 -21 220 -25 312 -10 225 39 397 183 525 440 l47 94 -32 40 c-17 22
-35 40 -39 40 -4 0 -18 -11 -31 -25z"/>
<path d="M5254 9037 c-37 -56 -49 -100 -48 -177 0 -89 31 -164 91 -223 42 -42
120 -83 175 -91 32 -5 39 -2 57 23 101 141 56 353 -94 449 -34 22 -121 52
-150 52 -5 0 -19 -15 -31 -33z m199 -225 c21 -18 29 -59 17 -83 -38 -71 -149
-19 -120 56 16 42 68 56 103 27z"/>
<path d="M5123 9039 c-22 -10 -61 -38 -85 -62 -164 -159 -117 -428 92 -524 77
-36 183 -37 258 -2 52 24 66 39 37 39 -27 0 -129 57 -164 92 -110 108 -150
264 -102 406 29 85 31 82 -36 51z"/>
<path d="M4726 8928 c-161 -289 -64 -598 228 -730 52 -24 61 -23 116 17 25 19
85 59 133 88 l86 54 -44 1 c-53 1 -156 35 -198 65 -136 95 -196 249 -162 418
6 33 3 38 -50 90 -31 30 -60 55 -65 57 -4 2 -24 -25 -44 -60z"/>
<path d="M7965 8932 l-60 -58 0 -104 c0 -97 -2 -110 -32 -170 -35 -73 -94
-138 -156 -174 -51 -30 -141 -54 -190 -51 -40 2 -49 -10 -17 -20 11 -4 76 -44
144 -89 l123 -82 51 22 c290 128 391 438 235 722 -14 26 -28 50 -32 54 -3 4
-33 -19 -66 -50z"/>
<path d="M2664 8814 c-70 -109 -154 -256 -154 -268 0 -20 100 -180 150 -239
97 -115 227 -201 354 -233 107 -26 278 -23 388 9 38 11 46 21 113 129 l73 116
-102 0 c-121 -1 -175 7 -270 38 -193 63 -350 206 -472 430 l-42 76 -38 -58z"/>
<path d="M10060 8804 c-102 -194 -235 -330 -395 -405 -110 -51 -206 -71 -341
-71 l-111 0 69 -112 c80 -128 77 -125 109 -132 332 -71 559 -3 749 223 50 59
150 219 150 239 0 16 -183 324 -193 324 -1 0 -18 -30 -37 -66z"/>
<path d="M11328 8835 c-2 -3 -22 -7 -44 -11 -63 -10 -164 -52 -232 -96 -153
-100 -271 -288 -288 -460 -7 -68 -8 -66 91 -122 87 -50 177 -76 281 -83 312
-19 596 188 674 493 29 113 27 134 -16 162 -126 82 -219 112 -360 117 -56 2
-104 2 -106 0z m-53 -306 c44 -26 75 -86 68 -133 -19 -129 -178 -164 -251 -56
-19 28 -23 44 -20 81 10 105 114 160 203 108z"/>
<path d="M1298 8789 c-68 -10 -155 -37 -213 -66 -49 -25 -123 -77 -137 -98
-22 -30 43 -223 104 -308 159 -223 420 -327 682 -272 82 17 216 81 269 127
l37 33 -9 51 c-44 229 -206 420 -425 500 -97 35 -209 47 -308 33z m370 -311
c35 -33 50 -68 47 -111 -6 -77 -69 -131 -146 -124 -81 7 -135 72 -125 150 15
110 144 159 224 85z"/>
<path d="M4415 8668 c-33 -4 -91 -10 -129 -13 -38 -3 -72 -8 -75 -10 -3 -3 35
-46 84 -95 85 -85 92 -90 125 -85 19 3 55 7 80 10 81 10 85 11 83 31 -2 11 -6
54 -9 96 l-7 78 -46 -3 c-25 -1 -73 -5 -106 -9z"/>
<path d="M8213 8620 c-2 -34 -7 -77 -12 -95 l-9 -34 42 -6 c49 -8 76 -12 136
-19 l45 -6 95 95 c65 65 88 94 74 93 -10 0 -40 2 -66 6 -70 9 -123 14 -218 21
l-85 7 -2 -62z"/>
<path d="M4149 8563 c0 -16 -2 -37 -4 -48 -6 -32 -19 -195 -19 -249 l-1 -50
60 -3 c33 -1 72 -7 87 -12 37 -13 39 -10 52 94 4 28 9 65 12 84 5 32 0 39 -82
122 -49 49 -92 89 -96 89 -5 0 -8 -12 -9 -27z"/>
<path d="M6288 8585 c-2 -2 -25 -4 -53 -6 -73 -4 -75 -5 -69 -52 15 -124 90
-271 188 -366 l45 -44 36 34 c83 78 159 203 183 299 15 64 22 120 14 121 -4 0
-16 3 -27 5 -23 5 -313 13 -317 9z m165 -117 c24 -28 21 -54 -7 -83 -29 -29
-71 -26 -98 6 -25 29 -22 56 8 85 29 30 67 27 97 -8z"/>
<path d="M8548 8503 c-94 -96 -89 -81 -74 -197 11 -82 17 -98 35 -91 9 4 51 9
94 12 l78 6 -5 56 c-3 31 -8 85 -11 121 -3 36 -7 79 -10 95 -2 17 -4 42 -4 58
-1 15 -4 27 -9 27 -4 0 -46 -39 -94 -87z"/>
<path d="M6064 8560 c-30 -12 -62 -133 -58 -217 5 -97 57 -194 137 -254 28
-21 41 -23 112 -21 43 2 81 5 83 7 3 2 -25 36 -60 74 -97 104 -161 238 -174
359 -5 55 -12 63 -40 52z"/>
<path d="M6692 8495 c-21 -137 -81 -253 -189 -367 l-56 -58 54 -1 c30 0 67 -2
83 -4 54 -7 146 77 188 172 44 99 15 308 -44 324 -24 6 -25 5 -36 -66z"/>
<path d="M11930 8498 c-64 -252 -286 -469 -555 -544 -83 -23 -281 -28 -363 -8
-74 17 -169 51 -197 70 -53 37 -50 6 10 -121 59 -124 147 -218 270 -287 64
-36 70 -39 175 -67 137 -37 317 -12 453 62 177 97 294 251 333 440 15 69 19
189 9 242 -18 99 -89 265 -113 265 -5 0 -14 -23 -22 -52z"/>
<path d="M5900 8528 c-19 -5 -51 -13 -71 -19 -31 -8 -38 -15 -49 -51 -19 -62
-20 -174 -3 -232 22 -75 87 -155 157 -193 25 -13 38 -14 85 -3 31 7 59 14 62
16 4 2 -13 25 -38 51 -91 99 -124 235 -89 371 9 35 16 66 16 68 0 6 -32 3 -70
-8z"/>
<path d="M6830 8536 c0 -2 7 -33 16 -67 36 -140 2 -278 -92 -375 -25 -25 -44
-47 -42 -49 2 -2 23 -6 48 -10 25 -4 51 -10 59 -15 10 -5 30 2 59 22 106 73
154 154 157 267 2 61 -16 175 -31 190 -3 4 -154 41 -166 41 -5 0 -8 -2 -8 -4z"/>
<path d="M789 8414 c-55 -121 -76 -296 -50 -404 7 -25 13 -52 15 -60 16 -62
75 -178 111 -216 5 -6 24 -27 42 -47 70 -80 229 -172 333 -192 70 -13 225 -13
289 1 218 47 421 236 485 453 23 79 22 86 -12 62 -87 -61 -252 -108 -395 -110
-216 -4 -415 76 -568 228 -87 87 -172 224 -194 314 -12 47 -25 41 -56 -29z"/>
<path d="M5610 8436 c-105 -41 -190 -79 -190 -86 0 -3 20 -18 45 -33 60 -38
122 -110 154 -177 22 -47 26 -69 26 -147 0 -51 3 -93 6 -93 3 0 27 10 55 23
27 13 77 34 111 46 l63 23 -28 21 c-122 93 -176 237 -147 392 8 46 9 65 1 65
-6 -1 -49 -16 -96 -34z"/>
<path d="M7091 8438 c16 -51 13 -181 -6 -237 -9 -27 -30 -69 -47 -93 -35 -47
-38 -51 -85 -90 l-33 -27 38 -12 c20 -6 70 -27 111 -46 40 -18 76 -33 80 -33
3 0 6 42 6 93 0 86 3 98 34 161 34 67 117 154 169 179 12 5 22 13 22 17 0 11
-260 120 -286 120 -10 0 -10 -8 -3 -32z"/>
<path d="M4540 8415 c-41 -5 -79 -11 -83 -12 -4 -2 -18 -3 -31 -3 -21 0 -24
-6 -30 -57 -9 -75 -15 -123 -21 -149 -4 -17 7 -28 54 -57 95 -59 190 -168 230
-266 l13 -30 26 32 c14 18 75 80 134 139 l109 107 -53 26 c-108 54 -223 166
-262 255 l-11 26 -75 -11z"/>
<path d="M8137 8371 c-48 -76 -123 -149 -197 -191 -33 -19 -67 -39 -75 -45
-11 -8 15 -38 120 -142 l134 -131 22 44 c52 108 164 226 248 261 l33 14 -6 65
c-9 92 -17 138 -24 146 -7 6 -27 10 -127 23 -27 4 -60 8 -72 10 -17 3 -29 -9
-56 -54z"/>
<path d="M2403 8352 c-67 -144 -94 -207 -131 -297 -54 -137 -95 -255 -90 -261
3 -2 34 2 69 10 97 22 146 28 239 27 83 -1 99 -3 169 -16 163 -30 343 -147
456 -297 l45 -60 10 29 c67 183 155 392 187 447 3 4 -19 5 -48 1 -115 -16
-283 -7 -354 18 -5 2 -23 7 -39 12 -40 11 -144 65 -191 100 -67 48 -189 179
-241 259 -27 42 -51 76 -54 75 -3 0 -15 -21 -27 -47z"/>
<path d="M10315 8322 c-61 -93 -189 -226 -267 -275 -59 -38 -156 -84 -192 -92
-11 -2 -32 -7 -46 -10 -94 -22 -207 -26 -318 -10 -60 8 -60 19 0 -105 47 -99
91 -208 121 -298 l25 -73 32 43 c52 68 183 191 231 217 111 60 166 82 244 97
11 2 32 6 46 9 37 8 195 8 249 0 25 -3 74 -13 109 -21 35 -8 66 -12 69 -10 14
15 -205 551 -242 593 -8 9 -24 -7 -61 -65z"/>
<path d="M5303 8291 c-17 -11 -50 -32 -73 -46 l-43 -27 44 -26 c79 -46 144
-108 176 -169 36 -68 46 -108 45 -184 l0 -57 58 36 c48 30 60 43 66 72 25 120
-3 235 -75 311 -45 46 -135 109 -155 109 -6 0 -25 -9 -43 -19z"/>
<path d="M7389 8274 c-114 -76 -168 -162 -173 -274 -5 -114 6 -140 73 -181
l58 -36 1 64 c2 141 78 265 210 339 29 16 52 31 52 34 0 7 -145 90 -157 90 -6
0 -35 -16 -64 -36z"/>
<path d="M5101 8156 c-10 -12 -5 -24 25 -63 77 -100 124 -243 125 -384 1 -43
5 -79 10 -79 5 0 9 5 9 10 0 6 4 10 10 10 5 0 31 20 57 45 l48 44 0 83 c-1 46
-4 94 -7 108 -21 82 -89 156 -201 219 -44 25 -60 26 -76 7z"/>
<path d="M7626 8150 c-154 -77 -224 -193 -213 -350 5 -62 9 -77 27 -89 12 -8
39 -30 59 -48 20 -18 38 -33 41 -33 3 0 6 35 6 78 3 142 37 249 116 369 40 60
48 77 37 84 -20 12 -29 11 -73 -11z"/>
<path d="M8497 8129 c-139 -47 -240 -145 -304 -293 -20 -49 -21 -52 -4 -71 24
-28 117 -166 146 -217 l25 -43 0 46 c0 202 185 379 390 374 25 -1 63 -5 86 -9
40 -7 42 -6 95 49 30 31 54 62 54 68 0 16 -139 84 -210 102 -84 21 -206 19
-278 -6z"/>
<path d="M4052 8129 c-86 -16 -232 -81 -232 -104 0 -6 25 -35 55 -65 l55 -54
102 0 c94 -1 109 -4 168 -32 71 -34 150 -107 181 -166 26 -51 47 -135 45 -180
-2 -21 0 -38 4 -38 3 0 14 17 24 38 10 20 51 85 91 144 l73 106 -27 59 c-72
151 -199 258 -341 290 -35 8 -158 9 -198 2z"/>
<path d="M4985 8067 c-51 -41 -226 -217 -261 -263 -15 -20 -23 -39 -18 -42
121 -88 215 -128 331 -140 62 -6 85 -7 135 -3 29 2 18 172 -16 275 -27 80
-101 206 -121 206 -5 -1 -28 -15 -50 -33z m32 -179 c7 -6 13 -28 13 -49 0 -29
-5 -41 -22 -51 -52 -28 -95 -12 -104 40 -6 31 -3 39 21 60 28 24 63 24 92 0z"/>
<path d="M7722 8050 c-22 -28 -55 -88 -72 -133 -27 -69 -33 -100 -37 -195 l-6
-113 94 5 c106 5 119 8 203 36 58 19 109 48 171 97 l28 23 -39 47 c-71 87
-275 282 -296 283 -3 0 -24 -23 -46 -50z m153 -165 c28 -22 26 -82 -5 -105
-24 -18 -30 -19 -67 -6 -23 7 -47 61 -36 80 26 47 70 59 108 31z"/>
<path d="M3692 7928 c-86 -88 -136 -158 -188 -263 -55 -112 -93 -244 -100
-349 -7 -93 -7 -80 -5 -131 l1 -41 77 4 c43 2 78 4 80 5 1 2 -2 28 -6 59 -12
87 27 222 84 288 7 8 15 38 19 65 3 28 11 66 17 85 18 52 75 135 116 167 88
69 85 55 23 118 l-56 56 -62 -63z"/>
<path d="M8989 7934 c-36 -37 -50 -57 -42 -62 71 -44 144 -136 165 -207 16
-55 15 -52 17 -82 1 -16 14 -41 29 -58 16 -16 41 -57 57 -90 24 -49 30 -75 32
-142 1 -45 -2 -95 -7 -112 l-9 -31 55 -1 c30 -1 60 -2 67 -3 6 -1 19 1 28 6
14 6 16 23 13 110 -4 168 -40 297 -120 447 -52 96 -86 143 -153 214 -70 74
-70 74 -132 11z"/>
<path d="M8707 7859 c-53 -8 -137 -40 -137 -51 0 -5 -4 -8 -10 -8 -21 0 -91
-88 -111 -140 -29 -73 -30 -178 -2 -242 21 -46 43 -70 43 -46 0 25 58 133 89
165 118 122 290 158 439 93 l43 -19 -7 22 c-44 147 -199 248 -347 226z"/>
<path d="M3933 7828 c-96 -32 -174 -116 -208 -227 -4 -13 -3 -21 1 -18 119 69
278 73 397 9 63 -34 132 -109 163 -177 14 -30 27 -55 30 -55 5 0 23 42 31 70
22 77 15 167 -21 242 -22 45 -89 114 -136 137 -80 41 -170 47 -257 19z"/>
<path d="M597 7794 c-2 -2 -65 -4 -140 -5 l-138 -1 7 -47 c3 -25 20 -89 36
-141 124 -395 396 -667 748 -750 108 -25 295 -30 390 -10 30 6 66 14 79 16 33
7 176 57 229 80 45 20 48 25 57 94 2 25 7 54 9 65 4 21 12 70 20 120 3 17 15
73 26 125 11 52 23 107 26 122 3 14 13 56 24 92 10 36 17 66 16 66 -2 0 -25
-21 -52 -47 -91 -89 -246 -178 -348 -199 -85 -18 -122 -22 -208 -22 -102 -1
-234 26 -313 63 -78 36 -181 108 -240 169 -50 50 -137 168 -148 199 -2 7 -74
17 -80 11z"/>
<path d="M6337 7794 c-1 -1 -33 -4 -72 -8 -339 -30 -650 -186 -890 -447 -123
-134 -252 -363 -299 -534 -26 -91 -31 -115 -46 -215 -9 -59 -6 -345 4 -395 4
-16 9 -43 13 -60 4 -16 8 -34 9 -40 7 -40 39 -142 45 -149 5 -6 9 -16 9 -24 0
-7 22 -57 49 -111 129 -260 314 -458 557 -596 68 -39 207 -103 239 -110 5 -1
17 -4 25 -7 169 -58 430 -80 618 -52 282 42 566 182 758 372 90 89 121 126
190 228 118 175 181 338 224 584 9 55 7 334 -4 401 -23 144 -90 330 -170 472
-207 370 -627 644 -1049 683 -61 5 -206 11 -210 8z"/>
<path d="M12069 7742 c-39 -61 -133 -157 -203 -207 -130 -92 -293 -144 -453
-143 -63 0 -92 4 -188 22 -118 23 -263 107 -371 214 l-61 61 33 -120 c18 -66
35 -132 38 -147 3 -15 12 -58 20 -97 8 -38 18 -86 21 -105 3 -19 8 -42 10 -50
2 -8 7 -35 10 -60 16 -130 7 -117 115 -162 236 -99 519 -112 745 -33 222 76
432 262 548 485 67 129 147 377 124 385 -7 2 -89 6 -183 7 l-171 3 -34 -53z"/>
<path d="M4640 7696 c-11 -21 -8 -31 20 -84 44 -83 101 -140 175 -177 32 -16
60 -20 138 -20 67 0 100 4 105 12 5 7 28 36 52 65 25 28 44 53 43 55 -2 2 -42
5 -90 7 -141 5 -272 48 -366 120 -62 47 -63 47 -77 22z"/>
<path d="M8094 7681 c-110 -87 -240 -130 -400 -132 -35 -1 -64 -4 -64 -8 0 -3
15 -22 33 -41 17 -20 39 -46 47 -59 13 -19 27 -23 91 -28 138 -10 234 38 318
162 45 66 56 100 38 125 -14 20 -15 20 -63 -19z"/>
<path d="M2355 7692 c-27 -3 -87 -17 -187 -43 -35 -9 -38 -13 -57 -77 -22 -76
-57 -220 -66 -271 -5 -29 -3 -33 12 -26 10 3 65 18 123 32 82 21 131 27 225
27 129 1 160 -2 245 -28 120 -36 264 -132 357 -237 l41 -48 7 27 c4 15 9 41
12 57 2 17 13 65 24 108 22 87 23 82 -43 180 -42 62 -122 146 -178 188 -46 34
-153 83 -215 99 -48 12 -238 20 -300 12z"/>
<path d="M10167 7684 c-127 -27 -225 -82 -324 -181 -72 -73 -156 -201 -149
-228 3 -11 18 -72 32 -135 l26 -115 77 78 c122 124 254 198 406 225 52 9 225
9 290 0 47 -6 181 -40 219 -54 9 -3 16 -1 16 5 0 16 -48 212 -71 293 -22 75
-8 66 -154 101 -70 17 -61 16 -195 21 -68 3 -129 -1 -173 -10z"/>
<path d="M4545 7556 c-61 -95 -61 -98 -30 -153 85 -144 236 -215 386 -181 38
9 49 18 77 60 17 28 32 53 32 57 0 4 -28 8 -62 9 -62 2 -188 38 -188 54 0 4
-5 8 -11 8 -18 0 -86 75 -128 140 l-40 62 -36 -56z"/>
<path d="M8186 7558 c-74 -132 -198 -208 -339 -210 l-64 -1 36 -58 c31 -51 41
-60 76 -67 61 -13 146 -7 205 14 63 22 152 105 189 175 l24 46 -34 57 c-19 32
-38 66 -44 77 -5 10 -12 19 -15 19 -3 0 -18 -23 -34 -52z"/>
<path d="M8775 7586 c-56 -17 -82 -32 -132 -79 -50 -46 -76 -91 -94 -161 -14
-55 -8 -65 54 -95 109 -52 226 -45 325 22 74 50 129 141 134 219 3 39 2 41
-54 70 -65 34 -164 44 -233 24z m38 -158 c23 -27 22 -49 -4 -82 -17 -22 -27
-26 -53 -22 -35 6 -66 37 -61 64 2 9 4 22 4 29 1 18 53 43 76 37 11 -3 28 -15
38 -26z"/>
<path d="M3839 7562 c-23 -7 -60 -25 -81 -40 -38 -24 -39 -27 -32 -66 9 -58
37 -107 87 -158 107 -109 273 -126 403 -42 39 25 40 28 34 63 -19 101 -108
205 -200 236 -67 22 -158 25 -211 7z m236 -147 c30 -29 32 -55 7 -86 -22 -26
-75 -31 -96 -8 -28 29 -28 68 -2 94 32 32 60 32 91 0z"/>
<path d="M9115 7423 c-12 -51 -66 -133 -115 -175 -115 -99 -296 -124 -420 -58
-33 18 -34 7 -6 -53 31 -64 98 -130 164 -160 65 -30 188 -29 252 2 174 82 242
266 163 439 -19 39 -29 41 -38 5z"/>
<path d="M3653 7408 c-22 -27 -44 -127 -39 -175 11 -98 37 -151 103 -215 59
-58 123 -82 218 -82 95 -1 166 27 227 89 40 40 88 127 88 158 0 17 -2 17 -32
-5 -18 -13 -35 -22 -38 -21 -3 1 -21 -2 -40 -7 -69 -19 -222 -12 -235 11 -4 5
-14 9 -23 9 -26 0 -127 84 -159 132 -16 24 -36 60 -44 81 -12 30 -18 36 -26
25z"/>
<path d="M4401 7278 c-23 -57 -49 -118 -57 -136 -25 -57 -21 -61 44 -48 62 12
80 12 162 2 85 -11 191 -79 241 -155 15 -24 15 -24 39 40 13 35 34 85 47 111
12 26 23 51 23 55 0 4 -42 8 -93 8 -86 0 -98 3 -161 34 -67 34 -154 117 -179
169 -5 12 -13 22 -16 22 -4 0 -26 -46 -50 -102z"/>
<path d="M8335 7361 c-12 -39 -129 -147 -190 -177 -54 -26 -70 -29 -157 -29
-62 0 -94 -3 -89 -10 8 -10 71 -159 85 -199 6 -18 11 -16 44 20 52 57 115 100
173 119 56 19 186 22 237 6 42 -13 42 -6 -6 111 -77 188 -84 199 -97 159z"/>
<path d="M2275 7194 c-44 -8 -121 -28 -172 -45 l-92 -32 -6 -39 c-4 -22 -5
-41 -3 -43 2 -2 26 -6 53 -9 28 -3 59 -8 70 -10 11 -2 40 -7 65 -10 136 -21
353 -114 493 -213 96 -67 126 -93 229 -196 43 -43 78 -76 79 -75 2 6 6 57 13
148 3 52 9 110 12 128 8 41 -34 108 -128 205 -162 167 -373 233 -613 191z"/>
<path d="M10305 7203 c-184 -32 -267 -74 -390 -198 -97 -97 -134 -156 -130
-203 2 -20 6 -68 10 -107 4 -38 8 -90 10 -115 2 -25 4 -48 4 -52 1 -3 29 23
64 59 178 186 411 328 630 383 118 29 154 35 265 42 32 2 33 4 31 43 -2 22 -4
45 -7 52 -5 16 -188 76 -275 89 -43 7 -187 12 -212 7z"/>
<path d="M3432 7080 c-21 -6 -21 -14 2 -91 84 -282 332 -430 606 -360 122 31
121 29 146 162 23 119 29 148 39 180 9 26 -5 24 -33 -6 -35 -37 -105 -72 -174
-87 -158 -34 -319 32 -409 167 -25 39 -26 39 -91 40 -37 0 -75 -2 -86 -5z"/>
<path d="M9156 7024 c-40 -45 -75 -72 -123 -96 -63 -31 -75 -33 -168 -33 -92
0 -105 3 -165 31 -36 18 -83 49 -104 70 -26 25 -37 32 -32 19 4 -11 10 -29 12
-40 2 -11 6 -29 9 -40 2 -11 15 -71 27 -134 21 -102 26 -115 48 -124 14 -5 34
-13 45 -18 46 -19 113 -31 180 -31 185 -1 344 101 436 277 21 41 37 75 34 75
-2 0 3 20 12 46 8 25 13 47 10 50 -2 3 -41 6 -85 8 l-80 3 -56 -63z"/>
<path d="M12225 7004 c-64 -60 -194 -155 -227 -166 -9 -4 -10 -9 -2 -19 6 -8
59 -79 119 -159 60 -80 117 -154 127 -164 10 -11 18 -22 18 -25 0 -3 114 -5
253 -4 316 1 291 0 275 17 -23 23 -61 69 -123 146 -32 41 -65 81 -73 89 -12
12 -106 126 -231 280 -29 36 -56 67 -60 68 -3 1 -37 -27 -76 -63z"/>
<path d="M369 6913 c-63 -76 -169 -204 -236 -286 -68 -81 -123 -151 -123 -155
0 -4 119 -7 265 -7 146 0 265 3 265 6 0 3 8 14 18 25 28 30 234 305 230 308
-78 47 -160 109 -225 170 l-81 77 -113 -138z"/>
<path d="M4360 7023 c-30 -8 -56 -16 -58 -18 -5 -4 -30 -103 -37 -142 -6 -35
-1 -38 39 -23 23 9 137 24 161 22 96 -9 173 -43 240 -108 26 -25 48 -44 50
-42 1 2 8 31 15 65 12 62 12 64 -15 105 -37 56 -80 94 -139 125 -61 31 -174
38 -256 16z"/>
<path d="M8225 7024 c-61 -21 -96 -44 -138 -88 -51 -56 -77 -100 -67 -117 5
-7 12 -35 15 -61 4 -26 9 -48 11 -48 2 0 24 20 49 44 96 94 234 128 374 92 35
-9 66 -15 68 -13 4 4 -9 69 -27 138 -9 31 -16 38 -52 48 -62 19 -186 21 -233
5z"/>
<path d="M1979 6887 c0 -7 -2 -21 -4 -32 -12 -61 -20 -239 -20 -460 0 -274 10
-446 27 -456 6 -4 26 -5 44 -3 19 2 49 6 67 8 52 6 96 16 186 42 194 58 361
163 534 336 72 72 86 91 78 106 -16 29 -171 174 -251 234 -96 71 -223 139
-324 173 -137 46 -335 76 -337 52z m348 -346 c65 -27 97 -123 63 -185 -48 -88
-167 -99 -232 -22 -43 52 -31 148 25 190 48 36 88 41 144 17z"/>
<path d="M10788 6884 c-2 -1 -34 -5 -73 -8 -209 -19 -439 -117 -617 -263 -95
-77 -217 -203 -212 -217 9 -22 180 -184 252 -238 176 -133 403 -219 612 -234
68 -5 76 -4 76 13 1 10 5 65 10 123 17 202 8 718 -15 821 -1 5 -28 8 -33 3z
m-192 -376 c110 -76 43 -253 -92 -243 -50 4 -79 21 -104 60 -38 62 -27 134 27
181 47 40 112 41 169 2z"/>
<path d="M10967 6803 c-3 -4 -3 -24 -1 -43 8 -59 12 -571 5 -640 -7 -79 -4
-105 12 -92 17 12 90 37 177 61 219 58 448 55 655 -9 l69 -22 21 24 c11 13 31
39 45 58 14 18 62 82 108 142 84 110 90 128 59 160 -7 7 -53 67 -102 133 -50
66 -95 126 -102 135 -7 8 -21 26 -31 39 l-19 25 -70 -22 c-131 -42 -354 -59
-484 -38 -31 5 -130 24 -154 30 -38 9 -162 51 -172 58 -6 5 -13 5 -16 1z"/>
<path d="M4355 6785 c-89 -19 -115 -31 -115 -55 0 -11 6 -20 13 -21 6 0 21 -2
32 -4 11 -2 37 -6 58 -10 96 -14 225 -86 326 -180 31 -30 57 -53 57 -52 1 1 4
37 7 80 5 73 4 79 -21 110 -107 128 -203 164 -357 132z"/>
<path d="M8275 6785 c-58 -17 -102 -42 -139 -78 -56 -55 -76 -91 -71 -128 2
-19 5 -53 7 -77 l2 -42 40 38 c87 82 104 95 192 138 67 33 112 47 173 56 78
12 82 13 79 37 -2 19 -13 28 -56 42 -68 23 -176 30 -227 14z"/>
<path d="M1770 6753 c-143 -55 -244 -75 -415 -78 -168 -4 -241 5 -365 44 -36
12 -68 21 -72 21 -9 0 -258 -327 -258 -339 0 -6 62 -92 137 -191 95 -125 142
-180 153 -177 171 49 242 61 380 61 83 0 128 -4 230 -18 41 -6 110 -26 185
-52 39 -14 74 -26 80 -27 5 -1 8 26 5 68 -6 109 -5 625 2 673 3 23 5 42 4 41
0 0 -30 -12 -66 -26z"/>
<path d="M9270 6705 c-13 -14 -45 -39 -71 -57 -27 -18 -49 -35 -49 -38 0 -3
29 -44 65 -91 l64 -87 130 0 c72 0 131 2 131 4 0 2 -9 14 -19 26 -11 13 -65
78 -121 146 -55 67 -102 122 -104 122 -1 0 -13 -11 -26 -25z"/>
<path d="M3388 6594 c-57 -70 -109 -132 -115 -140 -7 -7 -13 -15 -13 -17 0 -3
58 -5 130 -5 l130 0 60 80 c62 82 69 98 47 98 -8 0 -41 25 -74 55 l-61 55
-104 -126z"/>
<path d="M4229 6642 c0 -4 -3 -16 -5 -27 -8 -33 -9 -388 -1 -418 7 -27 10 -28
56 -22 116 13 239 75 340 171 l66 63 -50 48 c-70 67 -101 90 -168 124 -73 38
-236 79 -238 61z m186 -182 c38 -32 20 -103 -30 -116 -29 -7 -70 16 -79 44
-20 61 59 113 109 72z"/>
<path d="M8465 6625 c-108 -23 -202 -76 -303 -170 l-57 -53 68 -65 c110 -107
283 -181 393 -168 20 2 26 402 7 457 -5 15 -33 14 -108 -1z m8 -186 c24 -30
21 -56 -9 -85 -19 -20 -31 -24 -52 -20 -38 9 -62 41 -56 74 10 59 79 78 117
31z"/>
<path d="M8645 6408 c0 -103 2 -188 5 -188 3 0 34 10 70 21 92 29 216 33 306
10 l72 -18 57 75 c31 41 59 80 61 86 3 9 -90 142 -125 179 -5 5 -35 1 -69 -7
-86 -23 -191 -20 -292 7 l-85 23 0 -188z"/>
<path d="M4116 6572 c-3 -5 -23 -13 -43 -17 -21 -5 -45 -10 -53 -12 -59 -13
-154 -12 -221 2 -40 9 -79 17 -85 18 -10 2 -134 -149 -134 -163 0 -5 111 -154
129 -173 4 -4 36 -1 72 8 105 24 223 17 344 -22 l30 -10 -2 186 c-1 156 -4
186 -16 189 -8 2 -18 -1 -21 -6z"/>
<path d="M3266 6357 c7 -11 93 -117 104 -127 3 -3 34 -40 69 -83 l64 -78 31
29 c62 58 80 72 98 78 10 3 18 9 18 13 0 4 -29 46 -64 93 l-65 86 -131 1
c-101 0 -129 -2 -124 -12z"/>
<path d="M9271 6351 c-18 -18 -89 -112 -104 -138 -5 -7 9 -23 35 -41 24 -17
57 -44 74 -61 l32 -31 33 41 c19 23 39 46 44 53 6 6 28 34 50 61 22 28 50 61
63 75 55 59 55 59 -83 59 -109 0 -128 -2 -144 -18z"/>
<path d="M4670 6304 c-56 -57 -159 -126 -229 -154 -29 -11 -87 -26 -130 -34
-72 -12 -76 -14 -73 -36 5 -33 26 -46 97 -61 91 -20 175 -15 237 14 89 42 172
133 164 179 -3 12 -5 49 -5 81 -1 31 -4 57 -8 57 -5 0 -28 -21 -53 -46z"/>
<path d="M8 6325 c3 -5 40 -50 81 -100 42 -49 83 -99 92 -110 9 -11 41 -49 70
-85 30 -36 85 -103 124 -150 38 -47 75 -91 82 -98 7 -7 19 -22 27 -34 15 -21
16 -20 80 39 69 65 174 143 219 164 15 7 27 15 27 18 0 4 -54 78 -121 166 -67
88 -127 169 -135 179 -13 19 -28 20 -283 20 -177 1 -267 -2 -263 -9z"/>
<path d="M8076 6328 c-3 -7 -7 -43 -10 -79 -4 -60 -2 -71 20 -100 92 -127 233
-171 393 -125 56 16 76 26 82 43 10 27 5 30 -46 36 -153 19 -323 105 -410 208
-17 20 -26 26 -29 17z"/>
<path d="M12241 6304 c-90 -107 -235 -308 -224 -311 12 -4 153 -101 163 -112
3 -3 35 -34 71 -69 l66 -63 52 63 c29 35 60 72 69 83 10 11 35 42 57 70 49 61
77 94 90 109 6 6 49 58 95 116 47 58 91 109 98 113 6 4 12 13 12 20 0 9 -65
12 -261 12 l-261 0 -27 -31z"/>
<path d="M2924 6248 c-173 -182 -364 -308 -574 -378 -36 -12 -73 -24 -83 -26
-10 -2 -26 -5 -35 -8 -30 -9 -123 -24 -202 -32 -14 -1 -28 -2 -32 -3 -4 -1 -5
-9 -4 -18 2 -10 7 -37 11 -60 l7 -42 76 -25 c146 -47 199 -58 312 -61 201 -5
377 73 511 225 83 94 110 139 105 174 -8 51 -19 197 -20 258 -1 32 -4 58 -7
58 -3 0 -32 -28 -65 -62z"/>
<path d="M9809 6277 c-1 -1 -3 -22 -4 -47 -3 -56 -14 -172 -21 -225 -4 -36 0
-48 44 -110 104 -146 235 -241 390 -281 72 -19 215 -26 272 -13 19 4 52 10 74
13 47 8 226 66 226 75 1 3 5 25 9 49 10 51 20 46 -118 61 -100 12 -238 46
-311 77 -141 61 -208 100 -323 187 -43 32 -113 94 -157 137 -44 43 -81 77 -81
77z"/>
<path d="M8722 6160 c-46 -15 -85 -29 -86 -31 -2 -2 -6 -24 -9 -49 -3 -25 -11
-70 -17 -100 -6 -30 -14 -68 -17 -84 -2 -16 -9 -40 -14 -53 -15 -40 -11 -43
19 -16 116 109 279 135 435 70 15 -7 27 -15 27 -19 0 -5 6 -8 13 -8 18 -1 79
-59 114 -111 l31 -45 82 2 c45 2 85 5 87 8 10 9 -48 166 -82 224 -91 155 -225
234 -405 238 -82 2 -106 -1 -178 -26z"/>
<path d="M3840 6168 c-80 -12 -156 -46 -220 -97 -62 -50 -70 -60 -121 -141
-34 -56 -86 -196 -76 -206 8 -8 177 -11 177 -3 0 19 103 118 149 143 146 79
334 55 454 -59 26 -24 37 -31 33 -18 -12 39 -46 192 -58 258 l-13 70 -65 23
c-36 13 -85 26 -110 28 -25 3 -56 6 -70 8 -14 1 -50 -1 -80 -6z"/>
<path d="M4705 6045 c-103 -95 -235 -127 -375 -91 -34 9 -65 15 -67 13 -2 -3
1 -26 7 -53 29 -129 26 -125 95 -139 173 -36 313 17 394 148 22 37 23 42 11
95 -7 32 -13 61 -14 65 -1 4 -24 -13 -51 -38z"/>
<path d="M8047 6082 c-3 -4 -10 -32 -17 -63 -15 -68 -5 -92 69 -165 60 -59
127 -87 220 -89 55 -2 166 16 179 29 10 11 46 176 38 176 -2 0 -33 -7 -68 -16
-137 -35 -284 1 -374 92 -23 24 -45 41 -47 36z"/>
<path d="M11340 5964 c-168 -22 -390 -101 -396 -139 -2 -11 -8 -56 -14 -100
-12 -86 -56 -301 -94 -456 l-23 -95 51 51 c190 192 496 273 752 201 57 -17 73
-23 159 -62 104 -47 246 -178 311 -286 43 -71 50 -78 76 -73 10 2 86 5 169 6
l150 2 -5 36 c-7 51 -52 200 -81 272 -79 195 -225 380 -384 488 -97 66 -241
129 -331 145 -14 2 -41 7 -60 11 -62 11 -193 11 -280 -1z"/>
<path d="M1165 5925 c-398 -74 -690 -368 -810 -817 -13 -48 -20 -90 -16 -92 3
-3 65 -5 136 -6 72 -1 150 -2 175 -3 44 -2 46 -1 82 53 150 223 405 354 673
346 213 -6 395 -86 547 -239 34 -34 59 -57 56 -52 -7 12 -64 226 -71 265 -3
14 -10 43 -15 65 -6 22 -13 54 -16 70 -3 17 -12 73 -21 125 -31 190 -22 170
-96 201 -68 29 -208 72 -269 84 -72 13 -286 13 -355 0z"/>
<path d="M4801 5875 c-2 -18 -89 -103 -133 -128 -81 -47 -194 -62 -295 -39
-24 6 -43 6 -43 1 0 -25 110 -289 120 -289 3 1 22 25 42 55 45 64 107 116 174
147 39 18 67 23 141 23 51 0 93 1 93 3 0 2 -70 172 -90 217 -5 11 -9 16 -9 10z"/>
<path d="M7951 5777 c-23 -56 -45 -109 -47 -117 -4 -13 10 -15 88 -15 79 0
101 -4 148 -26 65 -31 145 -101 180 -158 14 -22 27 -41 30 -41 10 0 120 264
120 289 0 5 -17 5 -42 -1 -55 -12 -181 -12 -205 0 -10 6 -22 10 -26 10 -38 2
-139 75 -183 134 l-21 26 -42 -101z"/>
<path d="M8775 5857 c-66 -22 -99 -43 -144 -92 -43 -46 -80 -115 -81 -147 0
-16 2 -16 33 2 94 55 247 56 352 3 79 -41 157 -127 186 -205 7 -21 16 -38 20
-38 15 0 49 137 45 185 -9 120 -85 229 -193 277 -56 25 -165 32 -218 15z"/>
<path d="M3862 5840 c-92 -21 -182 -98 -223 -189 -37 -85 -31 -202 15 -280
l20 -34 11 41 c33 109 133 212 243 250 87 30 209 23 285 -15 16 -8 31 -12 34
-10 2 3 -7 30 -21 60 -31 65 -98 130 -164 158 -51 23 -147 31 -200 19z"/>
<path d="M2965 5694 c-159 -161 -313 -228 -525 -229 -106 0 -212 9 -229 19 -4
3 -20 7 -35 10 -15 3 -50 12 -78 22 -27 9 -51 14 -54 11 -4 -3 14 -94 40 -202
6 -24 28 -103 37 -132 9 -29 16 -33 92 -53 101 -28 128 -31 247 -36 200 -7
354 52 491 188 76 75 162 205 155 232 -3 12 -17 73 -32 136 -14 63 -26 115
-27 115 -1 0 -38 -36 -82 -81z"/>
<path d="M9740 5727 c-5 -29 -12 -61 -14 -72 -2 -11 -11 -48 -20 -82 -20 -75
-18 -79 73 -200 53 -70 124 -140 171 -168 62 -36 105 -56 166 -76 116 -39 326
-32 494 16 3 1 17 5 32 9 26 8 46 47 63 126 2 14 16 74 30 134 14 60 24 110
22 113 -3 2 -44 -8 -92 -22 -48 -14 -104 -28 -124 -31 -66 -11 -258 -13 -302
-2 -24 5 -55 12 -68 14 -14 3 -29 8 -35 12 -6 3 -16 7 -22 8 -20 3 -113 52
-169 89 -29 20 -85 69 -123 110 l-71 74 -11 -52z"/>
<path d="M3410 5641 c-4 -9 -6 -61 -4 -116 8 -239 113 -483 281 -655 l64 -64
57 57 c54 55 56 59 37 69 -86 49 -175 199 -178 298 0 8 -13 30 -29 49 -70 80
-104 223 -80 329 l10 42 -37 1 c-20 0 -53 2 -74 3 -26 1 -41 -3 -47 -13z"/>
<path d="M9294 5652 l-50 -3 4 -79 c5 -93 -15 -169 -64 -240 -17 -25 -34 -65
-37 -87 -10 -66 -18 -95 -45 -148 -26 -52 -109 -140 -142 -150 -30 -9 -25 -22
33 -82 l52 -54 62 63 c34 35 78 84 98 110 84 112 162 297 185 443 11 69 15
213 6 222 -6 7 -44 8 -102 5z"/>
<path d="M8660 5582 c-57 -21 -110 -53 -111 -67 -6 -59 38 -152 101 -208 107
-96 272 -109 392 -29 38 25 40 28 34 65 -15 93 -105 201 -194 232 -70 25 -168
28 -222 7z m155 -103 c26 -26 26 -69 0 -95 -31 -31 -59 -30 -90 1 -31 30 -32
59 -1 90 26 26 68 28 91 4z"/>
<path d="M4003 5579 c-142 -26 -247 -134 -269 -277 -4 -22 1 -31 28 -47 43
-26 88 -46 88 -38 0 3 6 1 13 -5 6 -5 44 -8 84 -7 155 7 281 117 307 267 7 37
5 39 -40 68 -40 25 -65 32 -154 45 -8 1 -34 -2 -57 -6z m68 -110 c28 -15 41
-54 28 -83 -37 -81 -153 -29 -119 53 15 38 53 51 91 30z"/>
<path d="M4725 5573 c-69 -21 -142 -78 -194 -154 -50 -73 -50 -74 14 -173 l38
-59 15 29 c77 147 204 233 351 236 33 1 61 5 61 9 0 4 -15 29 -32 57 -24 36
-42 52 -63 57 -59 14 -141 13 -190 -2z"/>
<path d="M7888 5576 c-30 -9 -44 -22 -71 -67 l-34 -56 58 -1 c79 0 114 -9 182
-45 61 -32 123 -97 169 -176 l26 -44 24 39 c14 22 35 57 48 80 l24 41 -29 49
c-44 76 -121 146 -185 169 -62 22 -157 27 -212 11z"/>
<path d="M4310 5424 c0 -29 -60 -130 -103 -174 -40 -40 -117 -87 -158 -96 -11
-2 -29 -6 -41 -9 -69 -16 -177 -2 -241 32 -28 14 -29 14 -22 -9 25 -83 89
-157 169 -198 42 -21 63 -25 140 -25 79 0 98 4 142 27 151 80 219 265 153 419
-21 49 -39 64 -39 33z"/>
<path d="M8464 5403 c-13 -31 -26 -100 -27 -138 0 -105 80 -228 181 -276 62
-31 65 -31 149 -31 143 0 263 92 304 234 4 16 5 28 1 26 -83 -43 -112 -51
-197 -54 -78 -2 -99 1 -153 23 -85 35 -163 107 -203 189 -18 35 -34 64 -36 64
-2 0 -11 -17 -19 -37z"/>
<path d="M4867 5376 c-76 -22 -135 -71 -190 -158 -43 -67 -52 -95 -37 -113 10
-12 19 -9 54 19 109 89 251 136 410 136 73 0 73 1 26 50 -8 8 -25 28 -37 44
-21 26 -29 28 -100 32 -48 2 -96 -2 -126 -10z"/>
<path d="M7755 5384 c-18 -5 -125 -111 -125 -124 0 -3 19 -5 43 -4 42 1 135
-9 192 -21 49 -10 187 -80 235 -118 43 -35 44 -35 58 -16 12 17 12 26 1 52
-40 101 -144 205 -222 224 -33 7 -159 12 -182 7z"/>
<path d="M3120 5288 c-41 -57 -147 -159 -205 -196 -194 -124 -407 -155 -664
-96 -35 8 -66 12 -69 10 -13 -14 199 -537 241 -594 7 -9 24 9 63 67 205 305
472 432 816 387 66 -9 66 -21 4 109 -22 44 -62 142 -91 218 -29 76 -54 139
-56 141 -2 2 -20 -19 -39 -46z"/>
<path d="M9631 5319 c-5 -13 -16 -44 -24 -69 -34 -98 -132 -328 -164 -383 -3
-5 19 -5 48 -1 206 28 399 -10 550 -108 85 -54 204 -176 272 -277 39 -59 57
-79 63 -69 58 93 255 580 241 594 -3 3 -24 0 -47 -6 -22 -6 -58 -13 -78 -16
-20 -2 -48 -7 -62 -9 -36 -7 -188 -7 -235 0 -61 9 -145 33 -200 57 -111 49
-251 164 -324 267 -30 42 -31 43 -40 20z"/>
<path d="M11293 5309 c-224 -42 -425 -217 -497 -431 -35 -103 -34 -115 3 -89
16 11 63 35 106 52 238 95 487 78 702 -49 66 -39 86 -55 159 -127 78 -77 137
-168 176 -273 l32 -83 23 43 c46 87 74 208 73 314 -1 101 -10 150 -43 234
-100 256 -339 418 -615 417 -42 0 -96 -3 -119 -8z"/>
<path d="M8355 5288 c-4 -11 -44 -76 -90 -143 l-82 -121 23 -52 c63 -143 165
-239 304 -286 128 -43 291 -22 428 56 l53 30 -58 61 -58 61 -105 1 c-97 0
-110 3 -171 31 -137 65 -235 220 -224 354 3 35 -10 40 -20 8z"/>
<path d="M4438 5226 c-16 -195 -196 -358 -388 -351 -25 1 -63 5 -86 9 -40 7
-42 6 -95 -49 -30 -31 -54 -61 -54 -67 0 -13 100 -66 175 -93 83 -30 241 -31
318 -3 117 44 199 113 264 224 52 89 60 118 39 141 -17 18 -138 200 -158 237
-8 14 -11 4 -15 -48z"/>
<path d="M1318 5275 c-2 -2 -19 -5 -38 -8 -102 -16 -166 -41 -262 -104 -177
-116 -288 -325 -289 -546 0 -83 4 -108 31 -197 32 -106 99 -208 100 -152 1 29
36 123 70 187 109 202 308 351 535 401 65 14 260 13 323 -2 74 -17 169 -51
197 -70 52 -36 50 -8 -6 115 -81 175 -241 307 -430 356 -54 14 -222 28 -231
20z"/>
<path d="M5026 5193 c-1 -1 -20 -4 -42 -7 -78 -10 -182 -57 -252 -113 l-42
-35 42 -51 c87 -106 269 -277 293 -277 12 0 71 82 99 137 44 88 79 320 51 343
-8 7 -142 10 -149 3z m-30 -161 c20 -13 35 -53 28 -75 -16 -49 -78 -63 -114
-24 -39 40 -8 106 50 107 14 0 30 -4 36 -8z"/>
<path d="M7607 5184 c-14 -24 4 -199 28 -270 29 -87 107 -214 131 -214 22 0
223 191 298 283 38 46 38 48 20 63 -60 48 -146 97 -203 115 -70 22 -264 38
-274 23z m270 -172 c36 -48 -4 -119 -61 -108 -56 11 -75 70 -35 112 24 26 75
23 96 -4z"/>
<path d="M5250 5158 c-1 -49 -9 -154 -13 -173 -24 -107 -67 -202 -123 -274
-19 -24 -34 -47 -34 -50 0 -4 9 -12 21 -19 25 -16 59 -5 128 41 109 74 154
152 158 276 1 46 -2 92 -7 101 -5 10 -36 41 -70 70 -55 48 -60 50 -60 28z"/>
<path d="M7479 5122 c-52 -43 -58 -51 -64 -99 -20 -150 34 -262 170 -349 66
-41 97 -50 114 -30 10 12 8 19 -11 41 -64 72 -119 189 -134 285 -3 19 -8 38
-10 41 -2 4 -4 41 -5 83 -1 42 -2 76 -3 75 0 0 -26 -21 -57 -47z"/>
<path d="M5454 4972 c5 -141 -65 -263 -202 -350 l-62 -40 27 -20 c16 -10 51
-32 79 -47 l51 -29 49 29 c147 85 219 241 180 390 -10 40 -18 49 -68 79 l-56
34 2 -46z"/>
<path d="M7288 4982 c-62 -40 -67 -50 -73 -147 -4 -58 15 -140 43 -184 24 -39
101 -110 151 -139 l44 -26 41 24 c23 13 58 34 79 47 l38 24 -63 40 c-134 85
-198 192 -200 334 -1 36 -1 65 -2 64 -1 0 -27 -17 -58 -37z"/>
<path d="M8120 4953 c0 -6 -59 -70 -131 -142 -128 -129 -130 -131 -104 -141
98 -37 223 -151 282 -255 13 -22 26 -39 30 -39 5 1 31 5 58 8 107 14 130 18
137 24 6 7 11 33 23 132 3 30 8 62 11 71 3 11 -14 27 -54 52 -92 57 -159 131
-219 242 -18 33 -33 55 -33 48z"/>
<path d="M4654 4885 c-56 -110 -168 -224 -250 -255 -26 -10 -26 -12 -20 -76 9
-92 17 -138 24 -146 7 -7 56 -15 138 -24 27 -2 56 -7 65 -9 11 -4 27 12 52 53
48 77 122 150 197 192 103 59 99 53 54 91 -21 18 -82 77 -135 132 l-97 99 -28
-57z"/>
<path d="M5645 4811 c0 -82 -4 -104 -27 -151 -32 -70 -85 -130 -148 -171 -27
-18 -47 -36 -44 -40 6 -10 72 -40 186 -85 88 -34 113 -41 104 -26 -8 14 -19
104 -18 155 2 103 53 207 135 278 20 17 37 35 37 39 0 5 -15 12 -32 16 -28 6
-128 48 -178 74 -13 7 -15 -6 -15 -89z"/>
<path d="M7060 4865 c-41 -18 -90 -39 -108 -45 l-32 -13 28 -21 c94 -69 152
-181 154 -293 1 -51 -10 -141 -18 -155 -3 -4 -1 -8 5 -8 15 0 117 38 186 70
33 15 70 30 83 34 31 10 28 17 -22 49 -61 39 -117 102 -151 172 -26 53 -30 70
-30 152 0 56 -4 93 -10 92 -5 0 -44 -16 -85 -34z"/>
<path d="M312 4873 c-9 -24 -9 -321 1 -398 27 -217 74 -389 160 -585 61 -141
169 -329 237 -414 98 -123 251 -284 291 -306 12 -7 39 16 120 102 57 60 105
114 107 118 2 5 -21 24 -50 44 -74 49 -177 158 -226 240 -53 88 -80 160 -99
261 -8 44 -17 90 -19 102 -2 12 -12 30 -23 40 -41 41 -103 135 -140 214 -77
165 -95 371 -47 533 8 25 11 47 8 49 -4 2 -72 5 -152 6 -79 1 -148 5 -152 7
-5 3 -11 -3 -16 -13z"/>
<path d="M12185 4846 c38 -186 15 -378 -67 -540 -29 -58 -98 -159 -116 -170
-5 -3 -10 -35 -11 -72 -1 -37 -4 -70 -6 -74 -2 -4 -7 -22 -10 -41 -33 -200
-202 -429 -382 -523 -18 -9 -33 -20 -33 -24 1 -4 50 -58 109 -121 97 -102 111
-112 125 -100 275 230 487 543 605 896 80 237 105 389 106 638 l0 160 -163 1
-164 0 7 -30z"/>
<path d="M5901 4746 c-100 -81 -140 -166 -136 -287 3 -103 21 -158 54 -165 14
-3 36 -9 47 -14 12 -5 43 -12 69 -15 l47 -8 -18 34 c-14 26 -18 59 -18 144 -1
101 1 115 27 166 15 31 47 78 71 103 43 47 44 47 20 56 -13 5 -45 12 -71 15
-44 6 -52 3 -92 -29z"/>
<path d="M6765 4768 c-27 -6 -52 -12 -53 -14 -2 -1 17 -24 42 -50 70 -72 99
-141 102 -244 2 -50 -3 -107 -11 -139 -8 -30 -13 -57 -10 -59 4 -5 165 35 172
42 2 2 9 25 16 52 13 51 15 166 3 217 -14 60 -82 144 -151 188 -33 21 -38 21
-110 7z"/>
<path d="M11045 4751 c-89 -24 -166 -61 -230 -109 -47 -36 -50 -41 -47 -78 6
-74 29 -135 95 -260 22 -41 123 -144 180 -183 45 -30 177 -95 177 -86 0 3 12
0 28 -6 15 -6 45 -13 67 -16 42 -6 179 -6 205 0 8 2 33 7 55 12 53 11 156 57
208 94 85 61 80 53 67 118 -46 226 -204 413 -415 492 -76 29 -96 32 -215 37
-82 3 -120 0 -175 -15z m238 -206 c95 -45 97 -193 4 -242 -138 -71 -269 102
-164 216 40 43 104 53 160 26z"/>
<path d="M3108 4745 c-2 -2 -19 -5 -38 -8 -199 -27 -373 -159 -510 -387 -28
-46 -50 -89 -50 -96 0 -12 85 -160 154 -268 l38 -58 39 72 c107 196 235 326
395 402 107 50 204 70 340 71 l111 0 -69 111 c-38 61 -72 114 -77 119 -14 14
-156 39 -243 42 -48 2 -88 2 -90 0z"/>
<path d="M9458 4729 c-48 -9 -91 -20 -96 -23 -5 -3 -34 -47 -66 -98 -31 -51
-64 -103 -72 -114 l-15 -21 113 0 c116 0 183 -11 276 -44 193 -69 346 -212
459 -426 20 -37 37 -69 38 -71 4 -5 88 127 145 226 l53 93 -17 37 c-34 72
-125 198 -188 261 -167 166 -385 229 -630 180z"/>
<path d="M1475 4722 c-195 -51 -351 -175 -436 -347 -42 -86 -76 -217 -66 -256
4 -13 21 -32 39 -43 18 -10 48 -27 67 -38 77 -44 182 -70 286 -72 116 -1 164
6 254 40 221 83 398 308 416 529 6 68 6 68 -97 124 -135 74 -321 99 -463 63z
m175 -210 c70 -34 98 -116 65 -185 -34 -70 -122 -96 -189 -56 -101 59 -89 205
21 244 49 18 61 18 103 -3z"/>
<path d="M6148 4714 c-132 -97 -173 -237 -120 -410 13 -45 23 -60 39 -62 18
-3 21 4 27 50 4 29 11 69 17 88 6 19 12 40 13 45 2 6 4 13 4 18 2 14 63 121
89 156 15 19 45 54 69 80 23 25 42 46 41 47 -1 1 -34 4 -74 7 -65 5 -74 3
-105 -19z"/>
<path d="M6523 4733 c-35 -2 -63 -7 -63 -11 0 -4 14 -20 32 -37 112 -109 195
-281 197 -411 1 -39 2 -41 29 -36 33 6 48 25 58 72 4 19 9 42 11 50 2 8 5 47
5 85 1 56 -4 82 -24 125 -37 79 -132 173 -170 168 -7 -1 -41 -3 -75 -5z"/>
<path d="M6367 4668 c-91 -73 -183 -231 -202 -345 -3 -18 -7 -46 -10 -62 -6
-34 -1 -36 75 -41 73 -5 338 -3 370 3 21 3 25 10 26 38 2 52 -33 167 -71 235
-19 33 -63 91 -97 128 l-63 67 -28 -23z m67 -243 c33 -31 31 -71 -7 -99 -22
-16 -32 -18 -54 -10 -56 19 -64 92 -14 119 36 20 44 19 75 -10z"/>
<path d="M7725 4583 c-33 -25 -95 -67 -138 -93 l-77 -48 57 -5 c76 -7 91 -11
150 -41 156 -78 234 -250 198 -436 -6 -33 -3 -39 53 -94 33 -32 64 -56 70 -52
17 10 81 149 97 211 58 224 -39 444 -242 553 -103 55 -101 55 -168 5z"/>
<path d="M4965 4590 c-195 -89 -306 -258 -300 -455 3 -106 37 -215 93 -297
l18 -28 59 60 59 59 0 103 c1 93 4 109 30 163 77 158 179 220 381 234 5 1 -21
19 -59 41 -38 22 -104 65 -146 94 l-76 54 -59 -28z"/>
<path d="M8485 4568 c-8 -51 -12 -78 -19 -138 l-6 -45 90 -90 c49 -49 91 -87
94 -84 3 2 8 42 11 89 4 47 9 93 10 102 2 9 7 55 10 101 7 81 6 84 -14 82 -29
-2 -132 11 -153 20 -13 5 -17 -2 -23 -37z"/>
<path d="M4265 4580 c-16 -4 -56 -8 -88 -9 l-58 -1 6 -72 c4 -40 9 -89 10
-108 10 -110 17 -176 21 -179 3 -3 45 35 94 84 83 83 89 91 85 124 -13 117
-24 172 -33 170 -4 -1 -20 -5 -37 -9z"/>
<path d="M2152 4435 c-1 -13 -14 -55 -29 -92 -90 -228 -267 -398 -491 -473
-90 -30 -132 -35 -262 -34 -130 1 -204 17 -316 69 l-72 33 10 -36 c58 -208
230 -382 446 -448 288 -88 603 37 758 302 24 41 62 138 70 179 2 11 6 32 9 47
16 71 7 188 -21 288 -16 57 -81 190 -93 190 -4 0 -8 -11 -9 -25z"/>
<path d="M10606 4380 c-73 -159 -76 -351 -10 -514 68 -168 203 -299 376 -366
44 -17 82 -29 85 -26 3 3 17 0 32 -5 40 -16 188 -13 266 6 225 52 412 227 480
450 23 78 21 80 -47 43 -35 -18 -85 -41 -113 -51 -173 -60 -397 -54 -559 16
-21 9 -41 17 -43 17 -16 0 -176 115 -216 156 -68 68 -139 178 -172 265 -16 41
-32 78 -35 82 -4 4 -24 -29 -44 -73z"/>
<path d="M7478 4370 c-73 -14 -151 -60 -103 -60 30 0 131 -59 171 -100 112
-113 146 -286 84 -427 l-19 -44 22 7 c84 26 158 90 197 171 18 36 24 68 26
128 2 70 -1 88 -25 140 -16 33 -44 76 -64 96 -67 70 -192 108 -289 89z"/>
<path d="M5175 4347 c-138 -47 -231 -190 -220 -337 9 -124 120 -257 238 -284
l28 -7 -21 41 c-11 22 -18 40 -14 40 4 0 1 7 -7 16 -19 23 -21 170 -3 229 31
106 110 196 211 242 30 14 51 29 46 33 -39 34 -191 50 -258 27z"/>
<path d="M3405 4342 c-253 -30 -449 -187 -579 -465 l-36 -77 22 -30 c26 -35
28 -36 54 -12 155 142 413 267 614 298 19 3 41 7 48 10 25 8 175 17 275 17
l98 0 -34 36 c-18 20 -64 73 -101 119 -37 45 -72 83 -77 83 -5 1 -12 2 -16 3
-61 15 -209 25 -268 18z"/>
<path d="M9185 4334 c-68 -11 -84 -17 -105 -42 -106 -123 -180 -211 -180 -215
0 -3 51 -5 113 -5 103 -1 153 -4 232 -18 17 -3 44 -7 60 -10 85 -14 225 -61
322 -108 80 -39 220 -132 272 -182 20 -18 39 -34 43 -34 3 0 20 18 38 40 l31
39 -35 76 c-99 214 -249 366 -429 433 -96 36 -232 46 -362 26z"/>
<path d="M4296 4251 c-50 -50 -88 -93 -85 -95 3 -3 38 -8 79 -11 41 -3 89 -8
105 -10 17 -2 66 -6 110 -10 l80 -7 2 62 c2 34 7 77 12 96 7 25 6 34 -2 35 -7
0 -20 2 -29 4 -22 4 -93 14 -143 20 -39 5 -42 4 -129 -84z"/>
<path d="M8293 4325 c-40 -6 -75 -14 -78 -17 -3 -3 -1 -25 4 -49 6 -24 11 -66
11 -93 l0 -48 73 7 c39 3 88 8 107 10 19 2 67 7 105 10 39 4 72 9 74 11 3 3
-35 45 -84 94 -98 99 -85 94 -212 75z"/>
<path d="M5443 4241 c-64 -22 -115 -60 -158 -119 -42 -58 -59 -118 -59 -199 0
-52 7 -75 35 -130 l35 -68 42 2 c24 1 64 14 92 29 139 76 200 235 149 394 -13
38 -58 104 -74 107 -6 1 -34 -6 -62 -16z m26 -158 c46 -39 27 -107 -32 -117
-21 -4 -35 1 -53 19 -31 31 -30 59 1 90 29 29 55 32 84 8z"/>
<path d="M7270 4231 c-55 -78 -68 -197 -31 -291 21 -56 84 -133 132 -163 33
-20 136 -50 152 -44 14 5 56 85 65 124 3 16 6 57 5 93 -1 146 -119 281 -265
304 -32 5 -39 2 -58 -23z m148 -135 c49 -16 48 -95 -2 -118 -47 -21 -95 14
-96 70 0 18 45 61 61 58 8 -1 24 -6 37 -10z"/>
<path d="M5620 4218 c105 -182 14 -443 -185 -529 -30 -13 -55 -26 -55 -29 0
-14 98 -43 153 -45 128 -5 247 67 304 183 38 77 39 191 4 269 -37 82 -158 182
-223 183 -16 0 -16 -2 2 -32z"/>
<path d="M7135 4226 c-100 -46 -176 -160 -181 -274 -8 -194 153 -352 346 -336
53 4 150 39 150 55 0 4 -12 10 -27 14 -86 21 -191 112 -233 202 -46 98 -48
240 -4 324 24 47 21 48 -51 15z"/>
<path d="M6925 4214 c-49 -12 -123 -27 -162 -34 -67 -11 -74 -14 -87 -43 -71
-154 -61 -351 24 -479 59 -89 161 -168 267 -207 72 -26 113 -33 114 -18 6 111
4 161 -10 171 -51 39 -126 125 -147 170 -63 138 -34 323 66 424 18 18 31 34
29 36 -2 2 -44 -7 -94 -20z"/>
<path d="M5810 4218 c36 -31 79 -97 100 -153 58 -157 -3 -349 -145 -448 l-52
-36 3 -82 c2 -45 5 -83 7 -85 2 -2 29 3 60 11 197 51 358 206 397 381 17 75
10 180 -17 264 -13 41 -29 80 -34 86 -6 7 -33 15 -62 19 -44 6 -139 25 -247
51 -21 5 -23 4 -10 -8z"/>
<path d="M10394 4160 c-10 -22 -22 -40 -26 -40 -5 0 -8 -5 -8 -10 0 -16 -149
-253 -239 -378 -44 -62 -83 -117 -86 -122 -7 -12 48 -145 93 -225 74 -132 190
-265 287 -333 22 -15 46 -33 53 -40 19 -17 167 -86 227 -105 125 -40 303 -53
445 -32 149 21 381 112 503 197 l28 20 -75 76 c-41 43 -97 101 -124 131 -44
47 -53 53 -77 47 -76 -19 -245 -26 -310 -13 -16 4 -43 9 -60 13 -54 11 -114
33 -183 68 -266 134 -439 431 -425 729 1 31 1 57 -1 57 -1 0 -11 -18 -22 -40z"/>
<path d="M6220 4147 c0 -4 6 -22 13 -40 42 -99 43 -287 3 -387 -5 -11 18 -34
79 -79 l85 -63 90 67 c50 37 90 70 90 74 0 4 -7 34 -16 66 -21 79 -14 227 14
308 11 31 17 57 14 58 -51 5 -372 2 -372 -4z"/>
<path d="M2413 4078 c0 -181 -67 -365 -183 -501 -33 -39 -103 -106 -132 -125
-13 -9 -25 -18 -28 -21 -22 -25 -165 -90 -246 -112 -128 -35 -364 -29 -436 11
-14 8 -26 2 -55 -28 -208 -213 -217 -223 -203 -233 144 -94 326 -178 448 -204
12 -3 32 -7 45 -10 101 -23 285 -25 392 -5 332 62 612 307 746 653 l30 78 -71
95 c-76 101 -189 272 -260 392 -23 39 -43 72 -45 72 -1 0 -2 -28 -2 -62z"/>
<path d="M3789 3956 c-2 -2 -51 -6 -109 -10 -58 -3 -116 -8 -130 -11 -14 -3
-48 -9 -77 -14 -171 -32 -366 -131 -523 -264 l-32 -27 46 -56 c97 -119 165
-193 291 -319 126 -125 325 -305 339 -305 19 0 122 131 173 221 74 129 136
328 150 480 6 68 7 169 4 260 l-1 37 -55 1 c-31 0 -59 3 -64 5 -4 3 -10 4 -12
2z m-277 -327 c24 -6 47 -22 64 -45 71 -92 9 -220 -106 -219 -82 1 -134 53
-135 136 0 55 24 95 72 120 37 19 56 20 105 8z"/>
<path d="M8923 3940 l-72 -5 0 -140 c1 -121 10 -210 34 -330 31 -151 148 -377
259 -499 l35 -38 43 33 c136 107 369 332 512 494 122 140 126 144 126 154 0
12 -148 127 -215 167 -98 59 -270 123 -369 138 -21 4 -42 8 -45 11 -4 2 -54 7
-112 10 -57 4 -108 7 -114 8 -5 1 -42 0 -82 -3z m448 -336 c61 -30 83 -126 44
-191 -35 -59 -122 -80 -182 -43 -103 62 -90 206 22 245 42 14 72 11 116 -11z"/>
<path d="M4054 3803 c-1 -263 -45 -453 -152 -657 -55 -104 -130 -213 -171
-250 -30 -27 -26 -36 25 -74 l45 -33 77 37 c346 166 503 426 460 761 -13 97
-24 125 -61 149 -17 12 -73 58 -124 103 -50 44 -93 81 -95 81 -2 0 -4 -53 -4
-117z"/>
<path d="M8664 3853 c-41 -38 -49 -45 -136 -116 -53 -42 -66 -82 -72 -219 -6
-162 33 -302 117 -418 79 -109 187 -194 344 -271 l82 -40 36 26 c19 15 35 29
35 32 0 2 -22 31 -50 64 -150 180 -256 416 -286 634 -12 93 -18 170 -17 253 0
50 -3 92 -6 92 -3 0 -24 -17 -47 -37z"/>
<path d="M4866 3811 l-57 -57 78 -75 c192 -183 423 -277 691 -280 35 -1 66 1
69 5 5 4 7 97 4 142 -1 7 -28 9 -79 6 -95 -5 -166 14 -241 63 -30 20 -70 37
-90 39 -118 11 -224 76 -293 178 l-24 37 -58 -58z"/>
<path d="M7870 3851 c0 -5 -24 -33 -53 -63 -58 -60 -142 -105 -217 -117 -29
-5 -61 -18 -79 -34 -57 -47 -138 -79 -220 -84 -42 -3 -93 -1 -113 5 l-38 10
-1 -39 c-1 -21 -1 -46 -1 -54 0 -8 0 -28 1 -43 l1 -29 113 3 c248 6 507 117
677 289 l54 55 -54 55 c-53 53 -70 65 -70 46z"/>
<path d="M6518 3586 l-85 -65 -1 -131 -1 -132 37 28 c20 15 39 31 42 34 3 3
41 35 85 70 44 36 92 76 107 89 l28 24 -38 41 c-21 23 -47 56 -57 74 -11 17
-22 32 -25 32 -4 0 -45 -29 -92 -64z"/>
<path d="M6179 3608 c-12 -18 -40 -51 -61 -74 l-39 -41 121 -99 c67 -54 131
-107 143 -116 11 -10 21 -18 23 -18 1 0 2 58 2 130 l-1 130 -78 60 c-42 33
-80 60 -82 60 -3 0 -16 -15 -28 -32z"/>
<path d="M4472 3498 c3 -156 -20 -265 -78 -380 -75 -148 -209 -277 -393 -376
l-74 -40 44 -28 c111 -71 252 -153 270 -159 38 -12 219 105 317 206 155 161
213 350 177 579 -24 150 -12 136 -247 280 -15 9 -17 2 -16 -82z"/>
<path d="M8285 3562 c-22 -16 -73 -48 -113 -71 -40 -24 -74 -47 -77 -51 -13
-21 -37 -165 -39 -238 -10 -267 119 -477 394 -642 46 -28 88 -50 95 -50 13 0
151 78 254 145 l74 47 -74 40 c-194 105 -326 235 -400 393 -34 71 -45 107 -66
205 -3 14 -5 76 -5 138 0 61 -1 112 -2 112 0 0 -19 -13 -41 -28z"/>
<path d="M9855 3393 c-69 -79 -365 -377 -442 -444 l-53 -46 48 -18 c26 -10 69
-31 95 -47 26 -15 50 -28 52 -28 2 0 26 -14 52 -32 168 -111 313 -272 399
-441 l29 -58 54 6 c29 4 63 8 75 10 34 6 256 36 277 38 22 1 26 12 34 87 3 30
10 84 16 120 5 36 12 76 14 90 2 14 6 48 10 75 3 28 8 57 10 65 7 23 -4 33
-76 73 -211 117 -371 291 -496 540 l-39 78 -59 -68z"/>
<path d="M2861 3342 c-39 -75 -105 -186 -121 -202 -3 -3 -18 -22 -33 -42 -76
-102 -230 -231 -355 -295 l-73 -38 6 -60 c4 -33 8 -67 10 -75 5 -18 17 -105
30 -220 8 -65 14 -79 33 -78 9 0 35 -2 57 -5 62 -10 185 -27 235 -33 57 -6
101 -13 120 -19 23 -7 35 5 63 60 106 208 325 410 565 520 l63 29 -28 26 c-15
14 -68 62 -118 107 -123 110 -341 335 -383 394 -7 11 -16 19 -20 19 -4 0 -27
-39 -51 -88z"/>
<path d="M4865 3308 c28 -224 -11 -411 -116 -565 -55 -79 -168 -186 -267 -255
-58 -39 -79 -59 -70 -64 27 -17 156 -77 248 -115 52 -22 104 -44 115 -49 56
-24 219 -80 232 -80 3 0 2 12 -2 28 -43 169 -47 352 -10 492 3 14 7 30 9 35 1
6 12 32 24 59 12 27 22 50 22 52 0 2 15 28 34 57 47 74 125 157 198 212 49 37
57 46 41 51 -134 48 -413 165 -456 191 -5 3 -6 -19 -2 -49z"/>
<path d="M7907 3345 c-90 -47 -298 -133 -435 -180 -9 -3 10 -23 47 -51 157
-118 261 -282 301 -474 11 -54 15 -253 6 -281 -3 -8 -8 -32 -11 -54 -3 -22
-10 -57 -16 -79 -6 -21 -8 -40 -6 -43 6 -5 103 27 247 84 129 50 365 161 359
167 -2 3 -38 27 -80 54 -148 97 -272 236 -333 374 -52 118 -73 282 -54 420 4
34 7 66 6 70 -2 4 -16 1 -31 -7z"/>
<path d="M5460 3083 c-320 -187 -427 -496 -314 -900 17 -60 9 -56 199 -102
152 -38 185 -43 185 -32 0 4 -7 28 -15 52 -34 95 -48 186 -49 304 -1 166 12
232 70 348 44 88 96 158 177 235 36 34 63 62 61 62 -3 0 -56 12 -117 26 -62
14 -121 27 -132 29 -11 3 -40 -7 -65 -22z"/>
<path d="M7220 3094 c-66 -17 -80 -21 -146 -34 l-51 -11 74 -72 c164 -159 237
-325 238 -542 0 -137 -9 -203 -45 -317 -11 -35 -20 -66 -20 -71 0 -4 15 -5 33
-2 74 13 337 82 337 88 0 1 12 47 26 102 34 132 41 291 18 395 -29 134 -83
231 -182 329 -56 54 -196 152 -216 150 -6 -1 -36 -8 -66 -15z"/>
<path d="M5910 2984 c-75 -51 -188 -168 -228 -235 -62 -106 -86 -196 -86 -329
0 -122 19 -223 65 -346 21 -57 41 -74 83 -74 22 0 26 5 27 33 7 160 72 388
154 537 78 141 150 235 268 350 37 36 67 68 67 71 0 2 -15 5 -32 5 -39 1 -165
12 -223 20 -34 4 -48 0 -95 -32z"/>
<path d="M6788 3015 c-4 -4 -187 -19 -240 -19 -21 0 -38 -3 -38 -6 0 -3 32
-36 71 -75 137 -135 256 -309 321 -469 36 -89 76 -240 85 -320 3 -34 7 -72 8
-86 2 -14 3 -31 4 -37 1 -8 11 -11 29 -7 45 9 66 12 78 13 15 1 69 163 90 271
9 47 10 216 1 263 -11 61 -44 147 -79 206 -39 65 -153 184 -223 231 -42 29
-95 46 -107 35z"/>
<path d="M6298 2838 c-206 -202 -323 -405 -372 -646 -14 -65 -30 -212 -24
-212 2 -1 30 -3 63 -6 33 -3 92 -9 130 -13 120 -14 710 -3 762 14 13 4 8 97
-11 200 -50 260 -206 520 -428 714 l-36 31 -84 -82z m167 -442 c51 -33 68
-111 39 -172 -60 -125 -257 -79 -257 60 0 86 72 151 152 136 22 -4 52 -15 66
-24z"/>
<path d="M9135 2728 c-84 -63 -267 -185 -379 -253 -110 -66 -108 -63 -36 -63
95 0 149 -9 239 -37 227 -72 402 -237 494 -465 26 -65 30 -82 46 -175 13 -73
5 -219 -16 -300 l-18 -70 44 -42 c24 -23 82 -79 128 -124 46 -45 85 -80 87
-78 17 20 84 135 115 197 137 275 164 566 76 827 -60 181 -180 342 -350 470
-61 46 -279 159 -325 168 -19 4 -43 -9 -105 -55z"/>
<path d="M3540 2746 c-155 -64 -288 -148 -384 -242 -194 -191 -290 -418 -290
-684 0 -128 13 -214 51 -335 31 -99 88 -222 137 -299 l37 -58 82 81 c45 44
104 100 130 124 l49 44 -14 84 c-38 223 22 462 157 624 63 75 80 92 145 139
152 112 314 164 495 158 l70 -2 -155 93 c-134 80 -279 174 -330 214 -61 47
-111 83 -118 82 -4 0 -32 -11 -62 -23z"/>
<path d="M10649 2728 c0 -13 -2 -32 -4 -43 -2 -11 -7 -42 -10 -70 -4 -27 -15
-108 -25 -180 -11 -71 -18 -130 -17 -132 37 -44 377 -376 378 -369 0 6 2 19 4
29 2 10 6 53 10 95 4 42 8 90 10 105 2 15 6 60 9 100 6 67 12 122 21 207 2 19
7 69 10 110 4 41 8 87 11 101 l4 26 -78 1 c-92 0 -155 8 -240 27 -81 19 -82
19 -83 -7z"/>
<path d="M2129 2716 c-14 -14 -179 -37 -279 -40 -53 -1 -94 -6 -93 -12 0 -5 4
-45 8 -89 3 -44 10 -116 15 -160 5 -44 12 -114 16 -155 8 -87 9 -97 20 -210 4
-47 9 -88 10 -92 1 -5 2 -14 3 -22 0 -7 85 72 189 176 136 138 187 195 186
211 -1 19 -18 145 -29 217 -2 14 -6 48 -10 75 -3 28 -8 59 -10 70 -2 11 -4 23
-4 28 -1 8 -15 10 -22 3z"/>
<path d="M8670 2283 c-19 -2 -55 -8 -80 -14 -25 -6 -54 -13 -65 -15 -36 -7
-187 -86 -179 -93 5 -4 30 -12 57 -19 139 -35 312 -154 403 -277 16 -22 31
-42 34 -45 22 -21 95 -185 105 -237 27 -129 30 -248 10 -348 -10 -54 -46 -157
-70 -206 l-24 -47 37 10 c272 75 472 337 474 622 1 105 -4 145 -31 222 -50
141 -162 281 -283 352 -73 44 -185 82 -256 88 -31 3 -66 6 -77 8 -11 1 -36 0
-55 -1z"/>
<path d="M4010 2244 c-275 -48 -476 -238 -538 -509 -56 -246 37 -499 246 -667
55 -45 222 -118 269 -118 9 0 2 21 -21 68 -67 133 -86 208 -90 352 -8 264 130
527 350 670 67 45 219 112 228 103 3 -4 6 -2 6 4 0 9 -56 40 -115 63 -52 21
-129 36 -190 39 -32 1 -61 3 -64 5 -3 1 -40 -3 -81 -10z"/>
<path d="M2114 2020 c-105 -104 -186 -191 -180 -191 6 -1 20 -3 31 -4 49 -6
164 -17 200 -20 41 -4 137 -12 215 -20 25 -3 70 -7 100 -10 78 -8 160 -16 195
-20 l31 -4 1 98 c1 55 11 139 23 195 12 54 20 99 18 101 -3 3 -69 13 -143 21
-22 2 -62 9 -90 14 -27 5 -77 12 -109 15 -33 3 -69 8 -80 11 -17 4 -60 -35
-212 -186z"/>
<path d="M10460 2207 c-3 -3 -27 -7 -55 -11 -27 -3 -59 -8 -70 -10 -22 -4 -86
-13 -155 -21 -85 -10 -101 -16 -96 -33 26 -91 39 -190 40 -307 1 -41 5 -69 11
-69 6 1 42 5 80 8 39 4 86 9 105 11 19 2 67 6 105 10 39 3 90 7 115 10 25 3
65 7 90 9 25 3 77 8 115 12 39 4 82 8 98 8 15 1 27 4 27 7 0 3 -83 89 -185
190 -164 163 -209 201 -225 186z"/>
<path d="M4525 2028 c-299 -62 -519 -335 -517 -643 0 -137 31 -244 101 -351
64 -100 58 -97 161 -79 32 6 136 49 162 66 14 11 31 19 38 19 6 0 50 39 99 88
62 62 98 108 124 159 117 226 96 502 -53 700 -41 54 -45 55 -115 41z m-38
-327 c40 -21 65 -60 71 -107 9 -81 -40 -141 -121 -149 -149 -16 -209 188 -75
254 39 19 92 20 125 2z"/>
<path d="M8174 1993 c-77 -119 -105 -206 -110 -343 -7 -194 54 -350 190 -485
114 -113 244 -178 386 -191 l55 -5 36 58 c76 123 109 243 104 377 -7 184 -65
317 -195 446 -108 108 -240 173 -380 186 l-55 6 -31 -49z m300 -278 c46 -22
80 -86 73 -136 -19 -140 -208 -168 -261 -38 -48 118 72 229 188 174z"/>
<path d="M4788 2003 c39 -55 77 -152 97 -248 65 -311 -68 -635 -335 -814 -47
-32 -121 -70 -164 -86 l-79 -29 54 -26 c265 -128 556 -83 762 117 209 202 254
520 113 788 -68 130 -237 265 -385 309 -78 23 -86 22 -63 -11z"/>
<path d="M7965 2006 c-167 -60 -297 -176 -373 -329 -14 -28 -27 -56 -29 -62
-1 -5 -10 -35 -19 -65 -20 -68 -23 -234 -5 -310 7 -30 32 -96 56 -145 74 -155
207 -272 377 -333 60 -21 94 -26 188 -29 137 -3 199 10 318 69 77 39 88 49 59
54 -59 10 -184 66 -262 117 -113 75 -208 188 -270 320 -56 117 -70 184 -70
337 0 145 17 226 72 333 13 27 23 52 21 57 -2 4 -30 -2 -63 -14z"/>
<path d="M7678 2005 c-3 -3 -14 -7 -24 -10 -11 -2 -80 -19 -154 -38 -132 -34
-429 -92 -497 -96 -23 -2 -87 -167 -118 -306 -20 -88 -26 -291 -12 -385 18
-117 81 -267 160 -385 84 -123 250 -261 407 -337 62 -31 185 -78 215 -84 11
-2 41 -10 67 -17 25 -8 50 -12 56 -8 6 3 11 60 12 131 3 202 2 234 -8 238 -27
9 -104 67 -155 118 -156 155 -238 360 -232 579 3 111 7 131 36 225 38 121 105
225 211 331 28 27 49 49 46 49 -3 0 -7 -2 -10 -5z"/>
<path d="M5180 1985 c0 -2 19 -23 43 -47 109 -110 174 -231 212 -397 21 -90
14 -280 -15 -376 -58 -194 -206 -382 -367 -466 -39 -20 -49 -36 -45 -70 1 -4
2 -75 3 -159 l1 -151 31 4 c18 3 60 12 95 21 396 105 689 361 792 693 74 241
53 500 -62 761 -24 54 -32 60 -99 67 -19 2 -34 4 -34 5 0 1 -16 3 -35 6 -63 8
-203 35 -285 54 -44 10 -91 21 -105 24 -14 3 -49 11 -77 19 -29 8 -53 13 -53
12z"/>
<path d="M6035 1830 c-14 -5 -14 -8 -1 -25 9 -11 16 -29 16 -40 0 -12 4 -25 9
-30 10 -11 49 -161 60 -229 3 -23 5 -113 5 -201 -1 -160 -7 -195 -59 -371 -6
-18 18 -39 160 -148 91 -69 170 -126 174 -126 7 0 341 247 364 269 4 4 -2 43
-13 85 -70 253 -61 475 28 737 l30 87 -42 -5 c-72 -7 -589 -11 -653 -4 -34 4
-69 4 -78 1z"/>
<path d="M3281 1130 l-114 -108 50 -59 c297 -342 760 -585 1253 -658 67 -10
385 -15 398 -6 10 6 13 34 12 102 -1 87 -7 220 -9 227 -1 1 -9 -2 -20 -7 -21
-11 -124 -25 -191 -24 -171 0 -328 53 -470 159 -52 39 -73 49 -108 50 -24 1
-63 5 -88 9 -24 3 -45 6 -46 5 -8 -2 -150 50 -188 70 -47 24 -126 76 -147 96
-7 7 -23 21 -35 31 -40 32 -107 114 -139 170 -17 29 -34 53 -37 53 -4 0 -58
-50 -121 -110z"/>
<path d="M9387 1207 c-52 -96 -194 -225 -317 -287 -87 -44 -224 -81 -307 -83
-7 0 -41 -24 -75 -54 -193 -164 -481 -228 -711 -159 -26 8 -48 13 -48 13 -2
-2 -7 -142 -10 -240 0 -43 2 -81 6 -85 10 -10 310 -10 391 0 343 42 662 161
934 347 121 83 241 188 359 314 l35 37 -70 66 c-38 36 -92 88 -119 115 l-51
49 -17 -33z"/>
<path d="M6645 674 l-180 -136 0 -264 c0 -145 3 -264 6 -264 5 0 263 209 349
283 14 12 45 38 70 57 25 19 56 45 70 58 14 13 44 37 67 55 23 18 41 35 40 39
-1 3 -23 29 -49 56 -59 62 -146 176 -166 219 -9 18 -18 33 -21 33 -4 0 -87
-61 -186 -136z"/>
<path d="M5950 718 c-25 -39 -80 -108 -122 -153 l-78 -82 118 -97 c64 -54 133
-110 152 -126 164 -134 296 -245 302 -254 10 -14 10 -16 12 277 0 137 -1 252
-4 256 -7 10 -326 251 -331 250 -2 0 -24 -32 -49 -71z"/>
</g>
</svg>
